<!DOCTYPE svg PUBLIC "-//W3C//DTD SVG 20010904//EN" "http://www.w3.org/TR/2001/REC-SVG-20010904/DTD/svg10.dtd">
<svg version="1.0" xmlns="http://www.w3.org/2000/svg" width="1600px" height="1600px" viewBox="0 0 16000 16000" preserveAspectRatio="xMidYMid meet">
<g id="layer101" fill="#000000" stroke="none">
 <path d="M6759 14463 l-56 -4 27 -82 c35 -107 54 -175 75 -267 17 -77 21 -98 50 -235 9 -44 21 -100 27 -125 5 -25 14 -67 18 -95 5 -27 18 -93 30 -145 12 -52 25 -117 30 -145 5 -27 18 -93 30 -145 12 -52 23 -105 26 -116 2 -12 16 -66 30 -120 14 -55 27 -108 29 -119 4 -20 15 -66 40 -165 7 -30 21 -91 31 -135 9 -44 23 -104 30 -134 15 -63 12 -71 -24 -71 -34 0 -182 28 -244 46 -63 19 -167 31 -320 39 -91 5 -158 15 -234 35 -58 16 -108 31 -110 33 -3 3 25 15 63 27 86 28 143 74 187 153 34 61 82 194 105 292 7 28 18 73 25 100 60 229 79 355 72 465 -12 167 -41 264 -100 335 -43 51 -56 53 -31 6 23 -46 2 -38 -31 12 -21 31 -29 38 -32 25 -6 -32 -30 -19 -74 38 -33 44 -43 52 -48 39 -5 -16 -7 -16 -19 -1 -19 23 -38 5 -68 -62 -27 -62 -41 -146 -48 -304 -3 -64 -10 -129 -15 -144 -6 -15 -13 -59 -16 -98 -5 -85 -19 -140 -46 -186 -12 -19 -34 -60 -51 -90 -42 -77 -42 -77 -95 -83 -26 -2 -56 -8 -66 -12 -18 -8 -19 -2 -12 167 7 170 3 238 -26 448 -20 145 -22 414 -4 579 18 161 13 196 -19 147 -10 -14 -18 -40 -20 -56 -1 -17 -5 -33 -8 -36 -3 -3 -30 6 -60 20 -29 14 -59 26 -65 26 -15 0 -15 -23 -1 -37 13 -13 4 -33 -17 -33 -26 0 -15 -18 29 -45 34 -21 37 -25 15 -21 -39 9 -43 -10 -10 -42 41 -38 45 -59 23 -128 -17 -53 -17 -63 -5 -93 13 -30 12 -46 -2 -125 -9 -50 -22 -114 -30 -143 -10 -36 -14 -116 -14 -276 0 -138 -5 -245 -12 -278 -7 -34 -12 -148 -12 -304 l-1 -251 -50 -74 c-27 -41 -52 -77 -55 -80 -14 -13 -71 -112 -105 -183 -52 -106 -55 -167 -21 -362 54 -308 70 -389 101 -500 8 -27 22 -84 31 -125 8 -41 24 -111 34 -155 10 -44 21 -109 25 -145 3 -36 11 -96 17 -133 12 -70 6 -134 -27 -302 -8 -38 -19 -104 -25 -145 -7 -41 -19 -109 -27 -150 -18 -92 -18 -196 1 -224 28 -43 81 -86 114 -92 33 -6 114 0 160 12 22 6 22 5 22 -87 -1 -106 -16 -329 -24 -336 -5 -6 -91 8 -212 33 -39 9 -87 14 -105 12 l-34 -3 -5 -455 -5 -455 -63 -105 c-35 -58 -88 -143 -118 -190 -29 -47 -57 -92 -61 -100 -6 -12 -72 -120 -150 -246 -17 -27 -126 -206 -138 -226 -5 -9 -65 -107 -132 -217 -67 -111 -124 -209 -128 -219 -6 -20 -8 -20 190 -57 280 -52 339 -58 358 -36 14 15 186 308 200 341 4 8 21 38 37 65 17 28 36 61 43 75 6 14 14 27 17 30 3 3 11 16 18 30 6 14 16 32 21 40 29 45 151 264 151 270 0 4 7 13 15 20 16 13 16 13 110 -195 33 -73 63 -139 104 -228 17 -37 31 -69 31 -71 0 -3 14 -35 31 -73 48 -107 56 -125 77 -173 11 -25 32 -72 47 -105 15 -33 41 -91 58 -130 16 -38 38 -77 47 -85 9 -9 52 -21 96 -28 43 -8 111 -20 149 -28 158 -31 223 -43 272 -49 l53 -7 -12 32 c-6 18 -188 387 -404 820 l-394 788 0 700 0 700 83 47 c45 25 113 66 152 90 38 25 72 45 76 45 3 0 28 -33 55 -72 27 -40 71 -100 97 -133 27 -33 89 -121 138 -195 48 -74 108 -162 131 -195 54 -75 207 -231 272 -276 26 -19 57 -40 66 -47 15 -11 23 -11 40 -2 32 17 22 64 -32 153 -82 136 -81 131 -87 259 -7 130 -7 131 -76 148 -68 17 -101 39 -118 78 -29 65 -107 276 -107 288 0 6 -11 37 -25 69 -14 32 -25 59 -23 60 2 1 37 18 78 38 77 37 247 144 288 180 27 25 29 63 3 77 -20 10 -136 -7 -194 -29 -57 -22 -160 -13 -246 20 -91 36 -94 35 -137 -33 -14 -21 -29 -35 -37 -32 -16 6 -67 86 -92 144 -11 25 -33 68 -49 95 -56 94 -30 173 92 282 158 141 476 508 640 737 17 26 46 65 63 89 16 23 69 98 117 167 95 138 156 216 185 241 17 14 19 30 18 180 -2 294 -25 513 -96 899 -8 41 -21 116 -30 165 -9 50 -21 113 -26 140 -6 28 -17 88 -25 135 -8 47 -21 119 -30 160 -9 41 -22 105 -30 143 -8 37 -20 97 -28 135 -12 59 -39 192 -52 260 -4 22 -7 22 -142 20 -75 -1 -162 -3 -193 -5z m-399 -562 c0 -12 -3 -11 -17 1 -10 9 -23 17 -29 19 -8 3 -9 12 -2 29 l9 24 19 -29 c11 -17 20 -36 20 -44z m47 57 c14 -17 25 -83 16 -91 -6 -6 -22 28 -40 86 -6 20 10 23 24 5z m-49 -130 c-2 -12 -8 -23 -14 -25 -7 -2 -10 6 -7 22 6 30 26 34 21 3z m369 -1594 c40 -14 81 -16 237 -13 129 3 190 1 193 -7 2 -6 -44 -62 -103 -125 -58 -63 -130 -145 -160 -184 -29 -38 -83 -106 -118 -150 -59 -73 -276 -356 -319 -415 -34 -49 -87 -135 -92 -151 -13 -40 -32 -27 -50 34 -22 75 -98 241 -120 263 -8 9 -26 35 -38 58 -19 36 -21 55 -20 148 3 142 22 210 99 353 36 66 69 127 73 135 5 9 31 18 67 22 32 4 111 16 174 27 63 10 118 19 122 20 4 1 29 -6 55 -15z m-634 -1909 c1 -5 -6 -11 -15 -13 -11 -2 -18 3 -18 13 0 17 30 18 33 0z"/>
 <path d="M10730 13905 c0 -34 -13 -63 -65 -150 -18 -28 -25 -55 -25 -91 0 -40 -5 -57 -25 -78 -15 -16 -25 -39 -25 -57 0 -16 -4 -29 -10 -29 -5 0 -10 5 -10 10 0 16 -22 12 -36 -7 -12 -16 -14 -15 -20 15 -4 18 -10 35 -14 37 -13 8 -20 -23 -31 -124 -5 -53 -14 -130 -19 -171 -16 -129 -12 -327 9 -446 21 -118 35 -158 81 -231 16 -26 30 -55 30 -65 0 -9 -13 -44 -30 -76 -16 -31 -32 -76 -36 -98 -5 -37 -3 -44 36 -89 55 -64 64 -87 45 -130 -15 -38 -46 -46 -88 -23 -16 9 -104 13 -302 14 -154 0 -345 6 -425 13 -138 12 -146 14 -167 39 -13 15 -23 31 -23 36 0 5 -12 25 -26 44 l-27 35 -17 -66 c-26 -104 -56 -124 -133 -92 -46 19 -47 19 -47 -4 0 -11 14 -30 31 -43 74 -55 147 -131 170 -175 13 -26 32 -49 43 -51 16 -3 18 1 14 40 -3 23 -8 50 -12 59 -4 9 1 25 12 40 l20 24 68 -24 c38 -13 83 -29 99 -36 66 -28 167 -47 450 -85 57 -7 85 -16 102 -32 22 -21 63 -134 63 -175 0 -34 29 -119 53 -154 23 -35 44 -97 71 -211 26 -110 26 -112 -79 -168 -117 -62 -227 -156 -329 -280 -88 -107 -152 -217 -196 -338 -21 -58 -74 -122 -100 -122 -35 0 -253 -168 -416 -320 -87 -81 -110 -92 -229 -109 -179 -26 -213 -38 -264 -96 -25 -29 -31 -44 -31 -81 0 -43 2 -46 38 -61 46 -19 87 -10 207 47 97 45 151 61 180 54 20 -5 39 6 158 93 58 42 291 133 342 133 19 0 23 -8 34 -69 6 -39 11 -85 11 -103 0 -32 29 -154 51 -213 88 -241 176 -371 352 -521 86 -74 133 -106 221 -148 61 -30 126 -57 143 -61 18 -4 35 -11 38 -16 4 -5 15 -9 26 -9 36 0 60 -75 57 -172 -2 -68 -6 -82 -18 -80 -51 12 -290 13 -374 3 -286 -36 -484 -193 -559 -441 -46 -153 -47 -176 -47 -1025 0 -757 1 -804 18 -809 25 -7 115 -23 207 -36 44 -6 102 -16 128 -22 27 -6 75 -14 108 -17 l59 -7 0 771 c0 801 4 901 42 984 28 64 103 138 167 167 46 21 69 24 164 24 186 0 309 -42 407 -140 53 -53 74 -86 115 -185 15 -36 18 -123 26 -820 5 -429 10 -822 11 -874 l3 -95 60 -12 c33 -6 105 -19 160 -29 55 -9 131 -23 169 -31 38 -8 82 -14 98 -14 l29 0 -3 863 c-3 665 -7 876 -17 922 -43 192 -105 336 -188 438 -49 58 -179 177 -195 177 -5 0 -24 11 -42 25 -18 14 -36 25 -39 25 -4 0 -40 15 -79 34 -65 30 -192 73 -271 90 l-28 7 3 112 3 112 50 11 c28 7 78 13 112 13 134 2 311 55 463 138 178 97 346 271 452 470 41 76 92 210 107 278 20 93 27 110 42 113 16 3 319 -168 376 -213 44 -34 102 -92 157 -158 42 -49 142 -128 241 -189 49 -31 69 -38 111 -38 59 0 64 6 64 76 0 99 -51 154 -193 205 -73 26 -100 41 -137 78 -39 39 -130 164 -130 178 0 18 -147 210 -219 286 -45 48 -171 147 -186 147 -4 0 -27 16 -50 35 -42 34 -51 50 -76 135 -17 60 -66 184 -94 241 -48 95 -112 178 -220 284 -117 116 -196 171 -325 226 -97 41 -129 64 -148 108 -21 49 -42 165 -42 229 0 47 24 230 34 263 2 8 7 27 11 43 l6 28 172 -5 c95 -4 246 -11 337 -16 91 -6 269 -7 395 -4 l230 6 56 -64 c30 -35 65 -79 78 -96 37 -54 70 -38 71 35 0 34 18 26 22 -10 2 -25 8 -34 24 -36 23 -3 34 19 34 69 0 40 22 53 83 46 108 -13 102 32 -9 68 -39 13 -94 35 -122 49 -55 28 -129 48 -237 66 -38 6 -101 18 -140 26 -148 29 -253 44 -320 44 -70 0 -191 19 -295 45 -127 33 -176 38 -385 44 l-220 6 -3 25 c-4 31 34 90 126 196 38 44 77 93 86 109 9 17 20 37 25 45 17 29 31 66 62 159 37 114 48 275 30 441 -6 58 -15 143 -20 190 -5 47 -17 103 -26 124 -11 27 -15 53 -11 79 4 25 2 45 -8 58 -9 13 -12 36 -9 67 7 65 -10 43 -27 -33 -22 -104 -54 -143 -80 -96 -15 29 -12 65 9 126 11 30 15 55 10 55 -5 0 -12 -7 -15 -15 -11 -29 -39 -14 -71 36 -22 33 -33 64 -33 88 l0 36 -20 -25 c-17 -21 -21 -23 -30 -10 -6 8 -9 25 -7 37 5 27 -10 20 -24 -10 -17 -40 -45 -81 -56 -84 -7 -3 -17 14 -23 36 -6 23 -13 41 -16 41 -4 0 -19 -11 -36 -25 -53 -45 -94 -25 -86 42 5 42 -17 133 -32 133 -6 0 -10 -16 -10 -35z m-321 -2902 c-1 -15 -111 -163 -167 -225 -34 -38 -80 -98 -146 -193 -41 -59 -103 -121 -112 -112 -3 3 24 64 61 134 51 99 84 147 142 211 109 119 225 215 222 185z m1276 -145 c82 -87 111 -126 177 -237 52 -89 92 -180 83 -189 -18 -18 -159 168 -225 298 -18 36 -48 86 -65 111 -78 111 -66 117 30 17z m-610 -236 c67 -24 160 -79 255 -150 120 -89 197 -149 219 -171 49 -47 255 -213 278 -224 13 -6 23 -14 23 -19 0 -4 4 -8 10 -8 18 0 110 -62 120 -80 11 -21 -12 -163 -42 -255 -33 -102 -105 -245 -155 -310 -5 -5 -17 -23 -27 -40 -78 -120 -310 -289 -481 -349 -139 -49 -245 -56 -467 -31 -142 16 -204 33 -307 84 -98 50 -158 95 -264 200 -110 108 -165 183 -232 321 -26 52 -51 102 -55 111 -17 34 -49 188 -56 272 l-7 87 35 33 c36 33 59 45 208 116 47 22 135 74 195 115 177 120 490 296 590 331 32 11 44 9 160 -33z"/>
 <path d="M1700 8997 l0 -1194 133 -21 c72 -12 182 -31 242 -43 61 -11 137 -24 170 -29 33 -5 87 -14 120 -20 107 -21 208 -39 295 -54 184 -31 278 -48 345 -61 39 -7 106 -19 150 -25 44 -6 110 -18 147 -26 37 -8 72 -14 78 -14 7 0 10 66 8 212 l-3 212 -80 12 c-81 13 -207 35 -345 59 -72 13 -161 29 -337 60 -144 26 -256 47 -318 59 l-60 12 -3 272 -2 272 40 0 c23 0 71 -6 108 -14 71 -15 175 -34 257 -47 28 -4 131 -22 230 -39 99 -18 200 -36 225 -40 25 -4 80 -13 122 -20 43 -8 80 -11 84 -7 4 3 9 98 12 211 l5 204 -49 7 c-27 3 -80 13 -119 20 -38 8 -115 21 -170 29 -107 17 -189 32 -380 67 -66 12 -142 25 -170 30 -27 4 -83 13 -122 20 l-73 13 0 284 c0 223 3 283 13 279 14 -5 90 -20 207 -41 97 -17 231 -41 340 -61 41 -7 109 -18 150 -25 71 -10 107 -17 305 -54 44 -8 99 -18 123 -21 l42 -7 0 211 c0 115 -3 212 -7 214 -8 5 -119 25 -288 53 -49 8 -127 21 -172 29 -108 20 -238 43 -340 61 -46 8 -122 21 -170 29 -49 9 -125 22 -171 30 -45 8 -119 21 -165 29 -45 8 -98 18 -117 21 -19 4 -82 15 -140 26 -58 10 -115 19 -127 19 l-23 0 0 -1193z"/>
 <path d="M3650 9293 c0 -307 3 -845 7 -1195 l6 -638 36 -6 c43 -6 160 -28 269 -49 42 -8 104 -16 137 -17 l60 -3 6 105 c4 58 7 489 8 958 1 764 3 852 17 852 8 0 34 -4 57 -9 23 -5 85 -17 137 -26 52 -9 132 -23 177 -31 46 -8 120 -21 165 -29 46 -8 112 -20 148 -26 36 -6 76 -13 90 -15 29 -3 124 -20 225 -39 147 -28 162 -28 169 -3 8 30 8 165 0 315 l-7 121 -51 5 c-28 4 -87 13 -131 21 -44 8 -134 25 -200 37 -66 12 -142 25 -170 29 -53 8 -136 23 -250 45 -38 7 -110 20 -160 28 -124 22 -249 44 -385 67 -63 12 -142 25 -175 30 -33 5 -76 14 -95 20 -19 5 -47 10 -62 10 l-28 0 0 -557z"/>
 <path d="M7290 9170 c-149 -36 -221 -73 -314 -166 -82 -81 -128 -163 -161 -284 -31 -119 -32 -138 -2 -144 20 -4 64 -12 302 -52 50 -8 112 -20 139 -25 27 -5 53 -6 57 -2 4 5 17 33 30 63 27 65 31 70 86 126 70 71 106 82 258 79 144 -3 184 -13 271 -71 95 -63 144 -148 144 -250 0 -52 -5 -72 -25 -104 -56 -88 -135 -139 -250 -159 -117 -21 -257 -41 -283 -41 -79 1 -305 -66 -396 -116 -143 -78 -221 -193 -259 -381 -20 -100 -20 -105 -3 -209 10 -59 24 -126 33 -148 21 -56 57 -126 64 -126 4 0 9 -10 12 -22 11 -44 156 -194 242 -252 76 -50 185 -106 240 -122 6 -2 30 -10 55 -19 170 -62 441 -83 585 -46 124 32 217 83 295 160 37 37 76 83 85 102 10 19 21 36 24 39 16 12 62 137 76 203 20 96 19 107 -6 107 -12 0 -60 7 -108 16 -47 9 -120 22 -161 29 -80 15 -212 35 -229 35 -6 0 -13 -17 -16 -37 -14 -87 -69 -182 -123 -216 -74 -47 -164 -57 -265 -31 -112 29 -191 83 -229 158 -30 58 -30 184 0 242 25 49 76 90 145 116 59 22 252 58 312 58 50 0 244 35 305 54 258 82 397 246 431 511 29 223 -43 427 -211 596 -166 167 -366 266 -656 324 -161 32 -374 34 -494 5z"/>
 <path d="M8884 8912 c-5 -9 -10 -546 -12 -1194 l-3 -1176 43 -7 c78 -13 78 -12 78 -135 0 -67 -4 -110 -10 -110 -5 0 -10 5 -10 11 0 5 -4 7 -10 4 -5 -3 -10 -15 -10 -26 0 -10 -4 -19 -10 -19 -5 0 -10 13 -10 29 0 17 -4 32 -9 35 -11 7 -20 -27 -22 -79 -1 -33 -4 -26 -15 34 -23 126 -35 134 -54 36 -7 -36 -16 -68 -21 -70 -4 -3 -13 11 -19 32 -6 21 -22 61 -35 88 l-23 50 -1 -56 c-1 -30 -7 -64 -15 -74 -12 -17 -16 -18 -31 -5 -17 14 -18 13 -13 -15 3 -17 11 -51 18 -76 7 -25 10 -54 6 -64 -6 -17 -7 -17 -21 1 -10 13 -14 14 -15 5 0 -7 -6 -11 -14 -8 -17 7 -26 -13 -26 -59 0 -39 -15 -74 -31 -74 -6 0 -30 14 -55 30 -24 17 -44 28 -44 25 0 -3 9 -24 21 -47 21 -40 20 -46 -12 -60 -14 -7 -59 -143 -59 -179 0 -22 -4 -48 -10 -58 -5 -10 -12 -77 -16 -150 -6 -108 -10 -131 -21 -127 -11 5 -13 0 -8 -15 19 -59 91 -189 104 -189 16 0 42 -78 60 -175 20 -112 24 -121 95 -220 30 -40 59 -95 70 -130 10 -33 22 -73 27 -89 7 -24 -1 -49 -55 -165 -118 -252 -116 -239 -43 -348 85 -125 122 -178 128 -183 3 -3 16 -23 29 -45 13 -22 26 -42 29 -45 4 -3 12 -16 20 -30 88 -153 128 -219 225 -365 119 -179 146 -225 146 -249 0 -15 -58 -118 -150 -266 -29 -47 -106 -178 -171 -292 l-119 -206 0 -102 0 -102 47 -42 c81 -72 151 -97 318 -114 l70 -7 3 -403 2 -402 54 0 54 0 6 93 c3 50 9 235 12 410 7 314 7 317 28 317 11 0 117 5 234 11 140 6 218 7 225 0 7 -5 50 -30 97 -55 47 -24 105 -56 130 -70 105 -59 124 -67 171 -73 47 -6 79 6 79 28 0 5 -34 46 -76 91 -107 116 -124 144 -135 227 -14 98 -31 145 -56 149 -11 2 -62 -17 -114 -41 l-94 -45 -90 18 c-50 10 -115 25 -145 33 -30 9 -73 21 -95 27 -22 6 -51 15 -65 20 -14 4 -37 11 -52 14 -37 8 -35 29 10 94 43 60 292 429 307 453 6 9 23 39 40 65 16 27 32 51 36 54 3 3 8 10 10 15 2 6 15 29 29 52 24 41 25 41 95 47 38 4 165 11 280 16 275 13 415 33 500 71 38 16 140 46 220 64 44 9 100 23 125 31 25 7 81 20 125 29 44 9 96 20 115 25 19 5 73 16 120 25 47 9 114 24 149 32 54 14 110 15 375 9 210 -4 342 -11 406 -22 147 -25 188 -24 212 6 24 30 18 75 -18 132 -31 48 -75 76 -134 83 -63 7 -177 35 -209 50 -70 35 -106 45 -155 45 -48 0 -58 -4 -100 -42 -39 -33 -55 -41 -84 -40 -39 1 -141 17 -227 34 -27 5 -133 14 -233 18 l-184 9 -151 -65 -151 -64 -181 0 c-197 0 -326 16 -607 76 -37 8 -81 14 -98 14 -42 0 -85 23 -148 81 -63 57 -121 77 -256 86 -84 5 -99 9 -128 33 -19 16 -47 52 -63 81 -26 48 -30 65 -33 163 l-4 108 63 -7 c35 -4 73 -11 84 -15 11 -4 61 -15 110 -25 71 -14 120 -33 235 -90 80 -40 165 -84 190 -98 25 -14 68 -37 95 -52 28 -14 93 -55 145 -89 108 -72 156 -89 290 -106 52 -6 105 -17 118 -23 56 -27 50 42 -13 147 -47 79 -81 97 -250 131 -130 26 -179 60 -155 105 16 30 6 51 -49 105 -69 68 -78 71 -110 46 -71 -58 -67 -57 -124 -27 -29 15 -65 36 -82 46 -32 21 -39 24 -190 95 -55 25 -156 73 -225 106 l-125 60 0 2137 0 2137 -50 7 c-27 3 -104 16 -170 28 -66 12 -149 26 -185 31 -36 5 -70 11 -77 13 -6 3 -15 -3 -19 -12z m241 -2417 c33 -8 77 -14 98 -15 l37 0 -5 -197 c-8 -262 -14 -338 -30 -360 -12 -16 -13 -10 -8 44 3 33 2 78 -2 99 l-7 38 -30 -50 c-47 -77 -50 -77 -43 1 4 39 9 79 11 90 4 16 1 15 -18 -7 -13 -16 -26 -28 -29 -28 -3 0 -4 46 -1 103 5 111 5 111 -63 222 -47 77 -29 89 90 60z m113 -1622 c-2 -116 -6 -215 -11 -219 -10 -10 -77 28 -152 86 -55 43 -60 50 -63 91 -4 55 13 89 95 191 34 43 70 93 79 110 9 18 22 39 28 47 19 24 27 -78 24 -306z m962 -698 c0 -8 -4 -15 -9 -15 -5 0 -14 7 -21 15 -10 13 -9 15 9 15 12 0 21 -6 21 -15z"/>
 <path d="M11980 7193 l0 -1198 68 -14 c37 -7 79 -15 94 -17 14 -2 79 -13 145 -25 65 -11 144 -24 175 -29 31 -5 81 -13 110 -18 184 -36 249 -45 256 -36 11 12 56 165 72 244 4 19 25 105 47 190 22 85 45 182 52 215 8 33 17 74 22 90 10 36 158 621 164 650 8 41 76 299 79 302 7 8 70 -263 136 -592 7 -33 19 -87 27 -120 8 -33 16 -69 17 -80 2 -11 8 -45 15 -75 30 -132 40 -177 45 -205 6 -34 25 -125 57 -265 11 -52 23 -108 25 -125 2 -16 9 -43 14 -60 5 -16 19 -76 30 -132 36 -188 38 -191 79 -203 20 -5 45 -10 56 -10 11 0 56 -7 100 -16 44 -8 114 -21 155 -29 41 -7 102 -19 135 -25 33 -6 85 -15 115 -20 30 -5 99 -16 153 -26 58 -10 102 -13 107 -8 14 14 24 1239 15 1845 l-7 535 -77 14 c-42 7 -85 14 -96 15 -23 1 -131 21 -229 41 -38 8 -79 14 -92 14 l-24 0 -1 -887 c0 -787 -2 -883 -15 -849 -8 22 -16 49 -19 60 -14 69 -34 156 -43 191 -6 22 -20 78 -31 125 -11 47 -31 130 -44 185 -13 55 -36 154 -51 220 -15 66 -34 145 -42 175 -14 55 -47 195 -103 435 -17 72 -42 177 -56 235 -15 58 -28 116 -31 130 -9 49 -16 60 -37 64 -154 32 -314 62 -407 76 -41 7 -97 16 -123 21 -26 5 -52 9 -56 9 -11 0 -20 -23 -31 -75 -4 -22 -25 -103 -45 -180 -21 -77 -41 -158 -46 -180 -4 -22 -16 -67 -25 -100 -9 -33 -20 -76 -24 -95 -4 -19 -13 -55 -19 -80 -7 -25 -20 -72 -28 -105 -9 -33 -21 -82 -29 -110 -7 -27 -20 -78 -28 -112 -18 -70 -42 -163 -62 -238 -7 -27 -20 -77 -28 -110 -25 -106 -88 -340 -92 -344 -2 -2 -4 403 -4 902 l0 906 -37 10 c-21 6 -48 11 -60 11 -12 0 -48 6 -80 14 -32 7 -96 19 -143 26 -77 11 -134 22 -182 36 -17 5 -18 -56 -18 -1193z"/>
 </g>
<g id="layer102" fill="#d9d9d9" stroke="none">
 <path d="M9440 15788 c136 -83 409 -226 880 -460 646 -322 1010 -514 1010 -534 0 -8 10 -14 25 -14 35 0 56 -12 305 -168 229 -144 399 -255 467 -307 35 -27 54 -33 116 -38 40 -4 101 -15 135 -26 71 -22 103 -48 446 -370 115 -108 212 -197 216 -199 20 -8 529 -567 605 -665 23 -29 46 -43 96 -61 106 -37 231 -125 354 -250 118 -120 136 -142 486 -611 127 -170 237 -317 245 -325 13 -13 14 -13 8 5 -16 42 -153 294 -200 365 -187 290 -353 519 -596 823 -110 136 -153 197 -141 197 10 0 45 -30 79 -67 38 -42 65 -64 72 -59 25 15 9 43 -57 96 -206 167 -501 420 -608 521 -169 163 -473 420 -677 574 -347 262 -380 289 -368 293 7 2 44 -17 84 -42 80 -51 101 -57 96 -25 -2 17 -39 38 -171 99 -131 61 -192 96 -280 162 -90 68 -577 412 -637 451 -8 5 63 -68 159 -162 l173 -171 -186 90 c-103 50 -189 90 -192 90 -2 0 -21 11 -42 23 -20 13 -59 32 -87 42 -27 10 -135 58 -240 106 -104 48 -300 133 -435 189 -135 56 -297 124 -360 150 -63 27 -223 87 -355 135 -132 48 -287 105 -344 126 -119 45 -129 47 -81 17z"/>
 <path d="M9297 15623 c48 -47 122 -156 136 -196 4 -14 78 20 109 50 28 26 55 89 44 100 -6 6 -54 25 -176 68 -36 13 -89 26 -118 30 l-52 7 57 -59z"/>
 <path d="M8366 15555 c28 -14 163 -52 300 -84 137 -33 263 -64 279 -70 l30 -9 -35 -1 c-19 -1 -138 10 -265 24 -353 38 -840 64 -1025 56 l-155 -6 105 -8 c58 -5 186 -15 285 -23 99 -8 308 -23 465 -34 262 -19 396 -33 407 -43 5 -6 -130 -42 -248 -66 -105 -22 -297 -45 -514 -61 -215 -17 -540 -75 -620 -112 -22 -10 -23 -12 -9 -23 11 -8 14 -19 10 -33 -7 -19 -15 -22 -69 -23 -34 0 -152 -12 -262 -28 -161 -22 -192 -29 -157 -33 49 -7 183 4 345 28 60 8 111 13 114 10 10 -9 -48 -57 -94 -78 -30 -13 -42 -23 -33 -28 9 -6 7 -10 -8 -14 -29 -10 -104 -94 -100 -114 2 -9 16 -20 33 -23 17 -4 23 -7 14 -8 -31 -2 -316 -83 -469 -133 -85 -28 -204 -72 -265 -99 -118 -51 -393 -183 -403 -194 -15 -15 65 12 288 95 280 104 390 139 570 179 306 69 527 56 654 -35 25 -19 46 -38 46 -43 0 -26 -221 -189 -349 -258 -47 -25 -87 -47 -88 -48 -2 -1 6 -44 18 -96 11 -52 24 -114 28 -139 5 -25 18 -94 30 -155 26 -136 45 -234 66 -350 9 -49 22 -124 30 -165 14 -76 34 -193 59 -355 8 -49 17 -135 21 -190 3 -55 8 -115 12 -134 l6 -33 86 6 c47 3 104 2 126 -2 36 -7 30 -9 -50 -15 -49 -4 -106 -10 -128 -14 l-38 -6 2 -160 c1 -146 -1 -162 -18 -176 -29 -25 -90 -103 -185 -241 -48 -69 -101 -145 -119 -170 -18 -25 -47 -64 -63 -88 -159 -223 -481 -594 -638 -735 -122 -109 -148 -188 -92 -282 16 -27 38 -70 49 -95 25 -58 76 -138 92 -144 8 -3 23 11 37 32 43 68 46 69 137 33 86 -33 189 -42 246 -20 58 22 174 39 194 29 26 -14 24 -52 -3 -77 -41 -36 -211 -143 -288 -180 -41 -20 -76 -37 -78 -38 -2 -1 9 -28 23 -60 14 -32 25 -63 25 -69 0 -12 78 -223 107 -288 17 -39 50 -61 118 -78 69 -17 69 -18 76 -148 6 -128 5 -123 87 -259 54 -89 64 -136 32 -153 -17 -9 -25 -9 -40 2 -9 7 -40 28 -66 47 -65 45 -218 201 -272 276 -23 33 -83 121 -131 195 -49 74 -111 162 -138 195 -26 33 -70 93 -97 133 -27 39 -52 72 -55 72 -4 0 -38 -20 -76 -45 -39 -24 -107 -65 -152 -90 l-83 -47 0 -700 0 -700 394 -788 c216 -433 398 -802 404 -820 l12 -32 -53 7 c-49 6 -114 18 -272 49 -38 8 -106 20 -149 28 -44 7 -87 19 -96 28 -9 8 -31 47 -47 85 -17 39 -43 97 -58 130 -15 33 -36 80 -47 105 -21 48 -29 66 -77 173 -17 38 -31 70 -31 73 0 2 -14 34 -31 71 -41 89 -71 155 -104 228 -94 208 -94 208 -110 195 -8 -7 -15 -16 -15 -20 0 -6 -122 -225 -151 -270 -5 -8 -15 -26 -21 -40 -7 -14 -15 -27 -18 -30 -3 -3 -11 -16 -17 -30 -7 -14 -26 -47 -43 -75 -16 -27 -33 -57 -37 -65 -14 -33 -186 -326 -200 -341 -19 -22 -78 -16 -358 36 -198 37 -196 37 -190 57 4 10 61 108 128 219 67 110 127 208 132 217 12 20 121 199 138 226 78 126 144 234 150 246 4 8 32 53 61 100 30 47 83 132 118 190 l63 105 5 455 5 455 34 3 c18 2 66 -3 105 -12 121 -25 207 -39 212 -33 8 7 23 230 24 336 0 92 0 93 -22 87 -46 -12 -127 -18 -160 -12 -33 6 -86 49 -114 92 -19 28 -19 132 -1 224 8 41 20 109 27 150 6 41 17 107 25 145 33 168 39 232 27 302 -6 37 -14 97 -17 133 -4 36 -15 101 -25 145 -10 44 -26 114 -34 155 -9 41 -23 98 -31 125 -21 78 -42 172 -60 270 -52 290 -63 348 -64 328 -1 -13 -5 -23 -10 -23 -5 0 -48 -36 -95 -81 -80 -76 -85 -79 -96 -59 -6 11 -10 35 -8 53 3 28 14 39 102 98 100 65 132 98 85 84 -55 -15 -150 -68 -234 -130 -82 -60 -173 -115 -192 -115 -15 0 67 75 157 143 52 39 99 74 103 78 6 5 -211 -57 -307 -88 -11 -4 13 24 52 62 53 49 69 71 60 76 -43 28 -145 -24 -273 -136 -55 -48 -123 -105 -150 -126 -62 -46 -165 -94 -165 -76 0 21 14 34 73 67 31 17 66 44 77 58 11 14 39 34 62 44 41 19 229 194 291 273 l32 40 -50 -29 c-133 -78 -422 -295 -625 -471 -176 -153 -290 -247 -290 -240 0 4 17 26 37 50 21 23 91 116 155 206 113 158 299 379 318 379 6 0 6 -10 -1 -26 -12 -33 -5 -41 17 -23 27 21 92 127 99 158 5 25 11 29 45 29 44 1 99 26 184 86 38 26 53 42 43 44 -9 2 -26 -2 -39 -9 l-23 -12 20 23 c36 40 208 174 312 242 113 75 350 206 431 240 52 22 53 23 51 62 -1 23 1 60 5 84 4 23 5 42 2 42 -14 0 -136 -59 -170 -82 -36 -25 -38 -38 -5 -38 41 0 26 -22 -38 -54 -75 -39 -158 -91 -130 -82 9 3 17 4 17 2 0 -2 -55 -36 -122 -76 -68 -40 -170 -105 -228 -145 -58 -40 -130 -85 -160 -100 -30 -15 -82 -46 -115 -68 -71 -48 -290 -215 -352 -269 -25 -21 -59 -45 -76 -54 -21 -10 17 34 108 126 108 109 165 158 248 212 102 67 119 82 97 90 -10 3 179 153 274 218 118 79 413 252 533 311 70 35 128 64 129 64 1 0 4 17 7 37 l5 36 -36 -15 c-20 -8 -145 -67 -277 -131 -132 -63 -296 -139 -365 -167 -116 -48 -125 -54 -125 -79 -1 -20 -10 -33 -35 -49 -131 -80 -256 -168 -390 -276 -85 -68 -161 -129 -169 -135 -8 -6 -3 9 12 34 15 25 34 45 43 45 21 0 40 33 26 47 -14 14 -65 -4 -126 -42 l-47 -30 7 35 c12 65 11 70 -16 69 -14 -1 -33 -4 -42 -9 -30 -12 -22 29 23 113 34 65 48 81 86 100 25 13 86 52 137 87 50 35 140 91 200 125 60 34 177 105 260 159 83 53 180 115 216 136 100 59 431 278 426 282 -2 2 -73 -23 -157 -56 -85 -32 -182 -69 -216 -81 -34 -12 -63 -29 -65 -37 -2 -8 -32 -27 -68 -42 -101 -42 -239 -127 -434 -266 -121 -87 -174 -131 -167 -138 7 -7 6 -19 -4 -37 -10 -20 -46 -43 -132 -85 -261 -126 -426 -242 -985 -690 -90 -72 -102 -85 -117 -132 -24 -71 -53 -106 -198 -235 -69 -62 -150 -144 -179 -182 -30 -37 -54 -66 -54 -63 0 3 22 60 49 127 50 124 111 228 157 271 l26 24 -6 -35 -7 -35 21 25 c12 14 37 44 56 68 19 23 51 49 70 57 20 8 34 21 34 31 0 10 40 56 89 103 72 71 141 155 141 175 0 2 -17 -12 -38 -31 -20 -19 -70 -62 -110 -95 -68 -56 -71 -58 -47 -22 14 20 25 49 25 64 0 36 24 58 38 34 16 -28 38 -9 61 54 30 80 128 230 198 303 59 62 79 73 70 39 -3 -13 28 11 84 62 209 193 485 428 502 428 4 0 4 -7 1 -15 -9 -24 5 -38 24 -23 10 7 7 1 -4 -12 -25 -29 -47 -70 -42 -76 2 -2 30 16 63 40 32 24 99 66 149 92 50 26 118 63 151 82 62 37 147 103 141 109 -2 2 -30 -10 -62 -27 -77 -40 -294 -140 -294 -135 0 2 34 25 75 50 41 26 78 51 80 56 5 7 -62 -10 -124 -32 l-26 -9 25 20 c14 11 95 67 180 124 366 245 680 412 1184 633 l70 30 19 62 c10 34 17 65 14 67 -3 3 -27 -1 -54 -8 l-48 -14 31 -17 c53 -28 50 -43 -14 -65 -31 -11 -65 -23 -74 -27 -14 -5 -18 -2 -18 14 0 44 -119 82 -172 55 -15 -8 -28 -18 -28 -22 0 -4 -88 -52 -196 -107 -196 -100 -224 -125 -94 -86 83 26 79 25 73 1 -9 -34 -61 -70 -101 -70 -45 -1 -113 -15 -121 -27 -7 -10 -81 -45 -81 -38 0 2 12 11 28 20 26 15 26 16 2 9 -38 -10 -179 -72 -230 -101 -25 -15 -142 -90 -260 -168 -118 -78 -226 -148 -240 -155 l-25 -14 23 -5 c31 -8 26 -20 -25 -59 -41 -31 -45 -32 -77 -21 -24 9 -49 10 -86 3 -65 -11 -89 -39 -99 -115 -6 -49 -8 -54 -31 -53 -14 1 -32 4 -41 8 -24 10 -82 -79 -75 -116 5 -24 -7 -36 -152 -146 -86 -65 -176 -132 -200 -147 -29 -19 -39 -31 -30 -36 8 -5 -24 -44 -102 -126 -63 -65 -186 -207 -273 -316 -88 -108 -161 -197 -164 -197 -3 0 -11 7 -17 16 -9 12 -17 13 -39 5 -24 -9 -27 -8 -27 10 0 34 18 57 50 64 38 8 104 93 114 147 4 20 22 60 41 88 28 41 31 50 16 50 -25 0 -58 -39 -76 -90 -18 -51 -63 -103 -82 -96 -7 3 -15 -5 -19 -18 -3 -15 -24 -34 -55 -50 -62 -34 -79 -59 -79 -117 0 -36 6 -52 25 -74 24 -24 25 -29 12 -49 -41 -61 -108 -114 -167 -131 -22 -6 -21 -3 12 29 41 38 44 46 27 63 -16 16 -4 55 27 92 32 38 22 39 -28 5 -21 -15 -41 -24 -45 -21 -12 12 48 114 133 227 106 140 174 236 174 243 0 7 -131 -131 -245 -258 -54 -60 -176 -207 -270 -325 -191 -238 -280 -335 -331 -356 -40 -17 -55 -41 -57 -97 -2 -37 0 -42 20 -41 21 0 20 -2 -14 -50 -137 -189 -199 -284 -248 -379 l-55 -108 0 56 c0 60 -16 79 -45 55 -27 -22 -26 -5 1 68 15 42 43 91 69 121 24 28 53 65 65 81 l22 31 -41 -7 c-56 -9 -53 6 13 76 45 47 56 65 61 104 4 26 5 49 3 52 -6 6 -151 -251 -223 -396 -344 -690 -610 -1567 -700 -2310 -48 -403 -69 -974 -45 -1260 7 -85 14 -207 15 -270 1 -109 3 -118 32 -170 21 -36 35 -80 42 -130 7 -41 14 -90 17 -107 6 -32 6 -33 -26 -27 l-31 7 7 -39 c3 -21 17 -61 29 -89 45 -102 84 -225 125 -400 74 -311 137 -534 200 -704 33 -91 60 -178 60 -193 0 -40 14 -65 72 -125 38 -38 61 -75 88 -141 21 -50 36 -93 32 -96 -3 -3 -16 -6 -29 -6 -20 0 -23 -4 -19 -22 16 -66 -194 392 -260 567 -30 77 -54 133 -54 124 0 -28 87 -321 135 -454 66 -181 153 -381 253 -580 70 -140 85 -177 83 -211 -2 -38 11 -65 37 -76 4 -1 62 -91 129 -198 67 -107 136 -215 155 -240 18 -25 87 -126 153 -226 309 -468 525 -787 525 -775 0 19 -48 157 -71 204 -16 33 28 -7 208 -188 287 -288 623 -601 923 -856 69 -58 196 -170 283 -248 86 -78 157 -139 157 -135 0 18 -68 121 -113 171 -29 32 -42 51 -31 43 117 -82 390 -260 474 -310 248 -149 671 -351 932 -446 59 -21 108 -42 108 -46 1 -31 -126 -10 -230 38 -54 25 -80 30 -80 15 0 -13 104 -57 303 -127 99 -35 194 -72 211 -82 30 -17 32 -17 49 0 39 41 207 19 617 -82 324 -80 530 -118 813 -150 95 -11 176 -20 182 -20 5 0 1 -8 -8 -17 -20 -21 -114 -24 -229 -9 -48 6 -68 5 -68 -3 0 -6 12 -13 28 -17 15 -3 46 -12 69 -20 22 -7 110 -20 193 -29 153 -16 292 -40 320 -55 24 -14 -32 -30 -153 -45 -60 -7 -111 -16 -114 -19 -12 -12 90 -30 172 -30 76 0 104 5 180 33 50 18 128 43 174 56 94 27 254 44 265 27 9 -15 -64 -40 -139 -48 -70 -7 -73 -14 -13 -34 21 -6 44 -21 52 -32 14 -20 21 -20 138 -14 333 19 775 79 1117 152 27 6 32 4 26 -6 -6 -10 7 -12 66 -8 84 6 150 27 218 68 41 25 309 110 346 110 8 0 24 -9 36 -21 l20 -20 82 27 c798 263 1575 670 2247 1178 388 293 680 558 1063 966 312 333 427 463 467 530 19 30 63 87 100 125 36 39 92 111 124 160 31 50 93 146 138 215 49 76 69 115 53 100 -21 -19 -15 -5 26 60 238 381 502 877 549 1032 12 40 39 101 60 136 24 40 59 125 90 226 85 265 80 254 73 161 -5 -78 6 -135 26 -135 16 0 58 82 81 160 13 41 38 106 57 144 19 38 52 121 73 185 36 107 131 443 130 459 -1 4 -10 -11 -22 -33 -25 -47 -69 -175 -104 -300 -43 -156 -97 -335 -101 -332 -4 4 35 294 43 321 7 21 6 21 -14 3 -28 -25 -85 -138 -112 -222 -13 -38 -31 -82 -41 -96 -25 -36 -69 -151 -124 -326 -99 -314 -52 -114 90 382 35 121 68 247 75 280 6 33 29 137 50 230 73 319 131 701 160 1055 38 463 16 1209 -50 1745 -161 1293 -703 2601 -1513 3650 -473 612 -1049 1154 -1674 1573 -85 57 -92 60 -82 35 5 -15 16 -34 22 -42 7 -8 -22 8 -63 36 -248 165 -490 307 -780 456 -118 60 -267 140 -330 177 -269 156 -375 210 -554 281 -44 18 -48 18 -35 3 19 -23 129 -94 207 -133 34 -17 62 -33 62 -35 0 -2 -73 23 -162 56 -89 32 -166 57 -171 55 -5 -1 5 -17 22 -35 18 -18 31 -32 29 -32 -2 0 -105 34 -228 76 -195 65 -552 165 -584 163 -6 0 43 -20 109 -44 66 -24 116 -44 110 -44 -5 -1 -102 28 -215 63 -447 140 -902 252 -1105 270 l-60 6 51 -25z m1361 -322 c-4 -3 -10 -3 -14 0 -3 4 0 7 7 7 7 0 10 -3 7 -7z m30 -10 c-4 -3 -10 -3 -14 0 -3 4 0 7 7 7 7 0 10 -3 7 -7z m1006 -1330 c8 -27 12 -65 9 -86 -8 -67 33 -87 86 -42 17 14 32 25 36 25 3 0 10 -18 16 -41 6 -22 16 -39 23 -36 11 3 39 44 56 84 14 30 29 37 24 10 -2 -12 1 -29 7 -37 9 -13 13 -11 30 10 l20 25 0 -36 c0 -24 11 -55 33 -88 32 -50 60 -65 71 -36 3 8 10 15 15 15 5 0 1 -25 -10 -55 -21 -61 -24 -97 -9 -126 26 -47 58 -8 80 96 17 76 34 98 27 33 -3 -31 0 -54 9 -67 10 -13 12 -33 8 -58 -4 -26 0 -52 11 -79 9 -21 21 -77 26 -124 5 -47 14 -132 20 -190 18 -166 7 -327 -30 -441 -31 -93 -45 -130 -62 -159 -5 -8 -16 -28 -25 -45 -9 -16 -48 -65 -86 -109 -92 -106 -130 -165 -126 -196 l3 -25 220 -6 c209 -6 258 -11 385 -44 104 -26 225 -45 295 -45 67 0 172 -15 320 -44 39 -8 102 -20 140 -26 108 -18 182 -38 237 -66 28 -14 83 -36 122 -49 111 -36 117 -81 9 -68 -61 7 -83 -6 -83 -46 0 -50 -11 -72 -34 -69 -16 2 -22 11 -24 36 -4 36 -22 44 -22 10 -1 -73 -34 -89 -71 -35 -13 17 -48 61 -78 96 l-56 64 -230 -6 c-126 -3 -304 -2 -395 4 -91 5 -242 12 -337 16 l-172 5 -6 -28 c-4 -16 -9 -35 -11 -43 -10 -33 -34 -216 -34 -263 0 -64 21 -180 42 -229 19 -44 51 -67 148 -108 129 -55 208 -110 325 -226 108 -106 172 -189 220 -284 28 -57 77 -181 94 -241 25 -85 34 -101 76 -135 23 -19 46 -35 50 -35 15 0 141 -99 186 -147 72 -76 219 -268 219 -286 0 -14 91 -139 130 -178 37 -37 64 -52 137 -78 142 -51 193 -106 193 -205 0 -70 -5 -76 -64 -76 -42 0 -62 7 -111 38 -99 61 -199 140 -241 189 -55 66 -113 124 -157 158 -57 45 -360 216 -376 213 -15 -3 -22 -20 -42 -113 -15 -68 -66 -202 -107 -278 -106 -199 -274 -373 -452 -470 -152 -83 -329 -136 -463 -138 -34 0 -84 -6 -112 -13 l-50 -11 -3 -112 -3 -112 28 -7 c79 -17 206 -60 271 -90 39 -19 75 -34 79 -34 3 0 21 -11 39 -25 18 -14 37 -25 42 -25 16 0 146 -119 195 -177 83 -102 145 -246 188 -438 10 -46 14 -257 17 -922 l3 -863 -29 0 c-16 0 -60 6 -98 14 -38 8 -114 22 -169 31 -55 10 -127 23 -160 29 l-60 12 -3 95 c-1 52 -6 445 -11 874 -8 697 -11 784 -26 820 -41 99 -62 132 -115 185 -98 98 -221 140 -407 140 -95 0 -118 -3 -164 -24 -64 -29 -139 -103 -167 -167 -38 -83 -42 -183 -42 -984 l0 -771 -59 7 c-33 3 -81 11 -108 17 -26 6 -84 16 -128 22 -92 13 -182 29 -207 36 -17 5 -18 52 -18 809 0 849 1 872 47 1025 75 248 273 405 559 441 84 10 323 9 374 -3 12 -2 16 12 18 80 3 97 -21 172 -57 172 -11 0 -22 4 -26 9 -3 5 -20 12 -38 16 -17 4 -82 31 -143 61 -183 89 -363 255 -464 429 -76 130 -159 366 -160 453 0 18 -5 64 -11 103 -11 61 -15 69 -34 69 -51 0 -284 -91 -342 -133 -119 -87 -138 -98 -158 -93 -29 7 -83 -9 -180 -54 -120 -57 -161 -66 -207 -47 -36 15 -38 18 -38 61 0 37 6 52 31 81 51 58 85 70 264 96 119 17 142 28 229 109 163 152 381 320 416 320 26 0 79 64 100 122 44 121 108 231 196 338 102 124 212 218 329 280 105 56 105 58 79 168 -27 114 -48 176 -71 211 -24 35 -53 120 -53 154 0 41 -41 154 -63 175 -17 16 -45 25 -102 32 -283 38 -384 57 -450 85 -16 7 -61 23 -99 36 l-68 24 -20 -24 c-11 -15 -16 -31 -12 -40 4 -9 9 -36 12 -59 4 -39 2 -43 -14 -40 -11 2 -30 25 -43 51 -23 44 -96 120 -170 175 -17 13 -31 32 -31 43 0 23 1 23 47 4 77 -32 107 -12 133 92 l17 66 27 -35 c14 -19 26 -39 26 -44 0 -5 10 -21 23 -36 21 -25 29 -27 167 -39 80 -7 271 -13 425 -13 198 -1 286 -5 302 -14 42 -23 73 -15 88 23 19 43 10 66 -45 130 -39 45 -41 52 -36 89 4 22 20 67 36 98 17 32 30 67 30 76 0 10 -14 39 -30 65 -46 73 -60 113 -81 231 -21 119 -25 317 -9 446 5 41 14 118 19 171 11 101 18 132 31 124 4 -2 10 -19 14 -37 6 -30 8 -31 20 -15 14 19 36 23 36 7 0 -5 5 -10 10 -10 6 0 10 13 10 29 0 18 10 41 25 57 20 21 25 38 25 78 0 36 7 63 25 91 52 87 65 116 65 150 0 50 17 44 33 -12z m-5389 22 c-6 -14 -44 -22 -44 -10 0 4 29 19 47 24 1 1 0 -6 -3 -14z m-814 -430 c0 -2 -10 -9 -22 -15 -22 -11 -22 -10 -4 4 21 17 26 19 26 11z m-50 -29 c0 -3 -5 -8 -12 -12 -7 -4 -8 -3 -4 4 7 12 16 16 16 8z m-30 -20 c0 -3 -15 -14 -32 -26 l-33 -22 30 26 c31 27 35 29 35 22z m-70 -50 c0 -3 -5 -8 -12 -12 -7 -4 -8 -3 -4 4 7 12 16 16 16 8z m-120 -310 c0 -3 -5 -8 -12 -12 -7 -4 -8 -3 -4 4 7 12 16 16 16 8z m650 -406 c0 -5 -5 -10 -11 -10 -5 0 -7 5 -4 10 3 6 8 10 11 10 2 0 4 -4 4 -10z m-704 -429 c-20 -20 -36 -42 -36 -48 0 -24 -403 -353 -416 -340 -12 11 119 138 271 262 83 68 163 137 180 155 16 17 31 26 33 20 3 -7 -12 -28 -32 -49z m1224 -361 c0 -5 -5 -10 -11 -10 -5 0 -7 5 -4 10 3 6 8 10 11 10 2 0 4 -4 4 -10z m-665 -60 c-21 -22 -41 -37 -44 -35 -2 3 13 23 34 45 21 22 41 37 44 35 2 -3 -13 -23 -34 -45z m-2297 9 c17 -10 14 -18 -32 -90 -28 -43 -68 -105 -90 -139 -40 -65 -78 -92 -98 -72 -9 9 1 29 38 84 104 154 156 228 160 228 2 0 12 -5 22 -11z m1292 -54 c0 -1 -7 -8 -15 -15 -13 -10 -15 -9 -15 8 0 15 5 20 15 16 8 -4 15 -7 15 -9z m-1468 -401 c-22 -32 -58 -104 -81 -158 -49 -116 -68 -144 -110 -169 -31 -18 -31 -16 35 110 79 150 126 227 162 266 41 43 37 17 -6 -49z m356 -102 c-8 -18 -182 -222 -190 -222 -25 0 102 194 141 215 28 16 55 19 49 7z m-199 -404 c-30 -59 -67 -112 -138 -197 -34 -40 -65 -79 -69 -87 -4 -7 -23 -17 -41 -20 l-34 -7 50 74 c42 62 236 279 249 279 3 0 -5 -19 -17 -42z m-282 -433 l-22 -60 -3 39 c-3 29 2 44 19 62 12 13 24 23 25 21 2 -2 -7 -30 -19 -62z m-347 -264 c58 -11 121 -22 140 -26 19 -3 72 -13 117 -21 46 -8 120 -21 165 -29 46 -8 122 -21 171 -30 48 -8 124 -21 170 -29 102 -18 232 -41 340 -61 45 -8 123 -21 172 -29 169 -28 280 -48 288 -53 4 -2 7 -99 7 -214 l0 -211 -42 7 c-24 3 -79 13 -123 21 -198 37 -234 44 -305 54 -41 7 -109 18 -150 25 -109 20 -243 44 -340 61 -117 21 -193 36 -207 41 -10 4 -13 -56 -13 -279 l0 -284 73 -13 c39 -7 95 -16 122 -20 28 -5 104 -18 170 -30 191 -35 273 -50 380 -67 55 -8 132 -21 170 -29 39 -7 92 -17 119 -20 l49 -7 -5 -204 c-3 -113 -8 -208 -12 -211 -4 -4 -41 -1 -84 7 -42 7 -97 16 -122 20 -25 4 -126 22 -225 40 -99 17 -202 35 -230 39 -82 13 -186 32 -257 47 -37 8 -85 14 -108 14 l-40 0 2 -272 3 -272 60 -12 c62 -12 174 -33 318 -59 176 -31 265 -47 337 -60 138 -24 264 -46 345 -59 l80 -12 3 -212 c2 -146 -1 -212 -8 -212 -6 0 -41 6 -78 14 -37 8 -103 20 -147 26 -44 6 -111 18 -150 25 -67 13 -161 30 -345 61 -87 15 -188 33 -295 54 -33 6 -87 15 -120 20 -33 5 -109 18 -170 29 -60 12 -170 31 -242 43 l-133 21 0 1194 0 1193 23 0 c12 0 69 -9 127 -19z m1890 -331 c19 -6 62 -15 95 -20 33 -5 112 -18 175 -30 136 -23 261 -45 385 -67 50 -8 122 -21 160 -28 114 -22 197 -37 250 -45 28 -4 104 -17 170 -29 66 -12 156 -29 200 -37 44 -8 103 -17 131 -21 l51 -5 7 -121 c8 -150 8 -285 0 -315 -7 -25 -22 -25 -169 3 -101 19 -196 36 -225 39 -14 2 -54 9 -90 15 -36 6 -102 18 -148 26 -45 8 -119 21 -165 29 -45 8 -125 22 -177 31 -52 9 -114 21 -137 26 -23 5 -49 9 -57 9 -14 0 -16 -88 -17 -852 -1 -469 -4 -900 -8 -958 l-6 -105 -60 3 c-33 1 -95 9 -137 17 -109 21 -226 43 -269 49 l-36 6 -6 638 c-4 350 -7 888 -7 1195 l0 557 28 0 c15 0 43 -5 62 -10z m4044 -675 c290 -58 490 -157 656 -324 168 -169 240 -373 211 -596 -34 -265 -173 -429 -431 -511 -61 -19 -255 -54 -305 -54 -60 0 -253 -36 -312 -58 -69 -26 -120 -67 -145 -116 -30 -58 -30 -184 0 -242 38 -75 117 -129 229 -158 101 -26 191 -16 265 31 54 34 109 129 123 216 3 20 10 37 16 37 17 0 149 -20 229 -35 41 -7 114 -20 161 -29 48 -9 96 -16 108 -16 25 0 26 -11 6 -107 -14 -66 -60 -191 -76 -203 -3 -3 -14 -20 -24 -39 -9 -19 -48 -65 -85 -102 -78 -77 -171 -128 -295 -160 -144 -37 -415 -16 -585 46 -25 9 -49 17 -55 19 -55 16 -164 72 -240 122 -86 58 -231 208 -242 252 -3 12 -8 22 -12 22 -7 0 -43 70 -64 126 -9 22 -23 89 -33 148 -17 104 -17 109 3 209 57 280 199 404 553 481 41 9 87 16 102 16 26 0 166 20 283 41 115 20 194 71 250 159 20 32 25 52 25 104 0 102 -49 187 -144 250 -87 58 -127 68 -271 71 -152 3 -188 -8 -258 -79 -55 -56 -59 -61 -86 -126 -13 -30 -26 -58 -30 -63 -4 -4 -30 -3 -57 2 -27 5 -89 17 -139 25 -238 40 -282 48 -302 52 -16 3 -23 12 -23 27 0 47 52 214 86 274 61 109 191 222 304 262 159 58 392 68 604 26z m1196 -254 c36 -5 119 -19 185 -31 66 -12 143 -25 170 -28 l50 -7 0 -2137 0 -2137 125 -60 c69 -33 170 -81 225 -106 151 -71 158 -74 190 -95 17 -10 53 -31 82 -46 57 -30 53 -31 124 27 32 25 41 22 110 -46 55 -54 65 -75 49 -105 -24 -45 25 -79 155 -105 169 -34 203 -52 250 -131 63 -105 69 -174 13 -147 -13 6 -66 17 -118 23 -134 17 -182 34 -290 106 -52 34 -117 75 -145 89 -27 15 -70 38 -95 52 -25 14 -110 58 -190 98 -115 57 -164 76 -235 90 -49 10 -99 21 -110 25 -11 4 -49 11 -84 15 l-63 7 4 -108 c3 -98 7 -115 33 -163 16 -29 44 -65 63 -81 29 -24 44 -28 128 -33 135 -9 193 -29 256 -86 63 -58 106 -81 148 -81 17 0 61 -6 98 -14 281 -60 410 -76 607 -76 l181 0 151 64 151 65 184 -9 c100 -4 206 -13 233 -18 86 -17 188 -33 227 -34 29 -1 45 7 84 40 42 38 52 42 100 42 49 0 85 -10 155 -45 32 -15 146 -43 209 -50 59 -7 103 -35 134 -83 36 -57 42 -102 18 -132 -24 -30 -65 -31 -212 -6 -64 11 -196 18 -406 22 -265 6 -321 5 -375 -9 -35 -8 -102 -23 -149 -32 -47 -9 -101 -20 -120 -25 -19 -5 -71 -16 -115 -25 -44 -9 -100 -22 -125 -29 -25 -8 -81 -22 -125 -31 -80 -18 -182 -48 -220 -64 -85 -38 -225 -58 -500 -71 -115 -5 -242 -12 -280 -16 -70 -6 -71 -6 -95 -47 -14 -23 -27 -46 -29 -52 -2 -5 -7 -12 -10 -15 -4 -3 -20 -27 -36 -54 -17 -26 -34 -56 -40 -65 -15 -24 -264 -393 -307 -453 -45 -65 -47 -86 -10 -94 15 -3 38 -10 52 -14 14 -5 43 -14 65 -20 22 -6 65 -18 95 -27 30 -8 95 -23 145 -33 l90 -18 94 45 c52 24 103 43 114 41 25 -4 42 -51 56 -149 11 -83 28 -111 135 -227 42 -45 76 -86 76 -91 0 -22 -32 -34 -79 -28 -47 6 -66 14 -171 73 -25 14 -83 46 -130 70 -47 25 -90 50 -97 55 -7 7 -85 6 -225 0 -117 -6 -223 -11 -234 -11 -21 0 -21 -3 -28 -317 -3 -175 -9 -360 -12 -410 l-6 -93 -54 0 -54 0 -2 402 -3 403 -70 7 c-167 17 -237 42 -318 114 l-47 42 0 102 0 102 119 206 c65 114 142 245 171 292 92 148 150 251 150 266 0 24 -27 70 -146 249 -97 146 -137 212 -225 365 -8 14 -16 27 -20 30 -3 3 -16 23 -29 45 -13 22 -26 42 -29 45 -6 5 -43 58 -128 183 -73 109 -75 96 43 348 54 116 62 141 55 165 -5 16 -17 56 -27 89 -11 35 -40 90 -70 130 -71 99 -75 108 -95 220 -18 97 -44 175 -60 175 -13 0 -85 130 -104 189 -5 15 -3 20 8 15 11 -4 15 19 21 127 4 73 11 140 16 150 6 10 10 36 10 58 0 36 45 172 59 179 32 14 33 20 12 60 -12 23 -21 44 -21 47 0 3 20 -8 44 -25 25 -16 49 -30 55 -30 16 0 31 35 31 74 0 46 9 66 26 59 8 -3 14 1 14 8 1 9 5 8 15 -5 14 -18 15 -18 21 -1 4 10 1 39 -6 64 -7 25 -15 59 -18 76 -5 28 -4 29 13 15 15 -13 19 -12 31 5 8 10 14 44 15 74 l1 56 23 -50 c13 -27 29 -67 35 -88 6 -21 15 -35 19 -32 5 2 14 34 21 70 19 98 31 90 54 -36 11 -60 14 -67 15 -34 2 52 11 86 22 79 5 -3 9 -18 9 -35 0 -16 5 -29 10 -29 6 0 10 9 10 19 0 11 5 23 10 26 6 3 10 1 10 -4 0 -6 5 -11 10 -11 6 0 10 43 10 110 0 123 0 122 -78 135 l-43 7 3 1176 c2 648 7 1185 12 1194 4 9 13 15 19 12 7 -2 41 -8 77 -13z m3075 -539 c22 -6 78 -16 125 -22 47 -7 111 -19 143 -26 32 -8 68 -14 80 -14 12 0 39 -5 60 -11 l37 -10 0 -906 c0 -499 2 -904 4 -902 4 4 67 238 92 344 8 33 21 83 28 110 20 75 44 168 62 238 8 34 21 85 28 112 8 28 20 77 29 110 8 33 21 80 28 105 6 25 15 61 19 80 4 19 15 62 24 95 9 33 21 78 25 100 5 22 25 103 46 180 20 77 41 158 45 180 11 52 20 75 31 75 4 0 30 -4 56 -9 26 -5 82 -14 123 -21 93 -14 253 -44 407 -76 21 -4 28 -15 37 -64 3 -14 16 -72 31 -130 14 -58 39 -163 56 -235 56 -240 89 -380 103 -435 8 -30 27 -109 42 -175 15 -66 38 -165 51 -220 13 -55 33 -138 44 -185 11 -47 25 -103 31 -125 9 -35 29 -122 43 -191 3 -11 11 -38 19 -60 13 -34 15 62 15 849 l1 887 24 0 c13 0 54 -6 92 -14 98 -20 206 -40 229 -41 11 -1 54 -8 96 -15 l77 -14 7 -535 c9 -606 -1 -1831 -15 -1845 -5 -5 -49 -2 -107 8 -54 10 -123 21 -153 26 -30 5 -82 14 -115 20 -33 6 -94 18 -135 25 -41 8 -111 21 -155 29 -44 9 -89 16 -100 16 -11 0 -36 5 -56 10 -41 12 -43 15 -79 203 -11 56 -25 116 -30 132 -5 17 -12 44 -14 60 -2 17 -14 73 -25 125 -32 140 -51 231 -57 265 -5 28 -15 73 -45 205 -7 30 -13 64 -15 75 -1 11 -9 47 -17 80 -8 33 -20 87 -27 120 -66 329 -129 600 -136 592 -3 -3 -71 -261 -79 -302 -6 -29 -154 -614 -164 -650 -5 -16 -14 -57 -22 -90 -7 -33 -30 -130 -52 -215 -22 -85 -43 -171 -47 -190 -16 -79 -61 -232 -72 -244 -7 -9 -72 0 -256 36 -29 5 -79 13 -110 18 -31 5 -110 18 -175 29 -66 12 -131 23 -145 25 -15 2 -57 10 -94 17 l-68 14 0 1198 c0 1137 1 1198 18 1193 9 -3 35 -9 57 -14z m2902 -2639 c-4 -3 -7 0 -7 7 0 7 3 10 7 7 3 -4 3 -10 0 -14z m-18 -52 c-6 -18 -13 -30 -15 -28 -2 2 1 18 7 36 6 18 13 30 15 28 2 -2 -1 -18 -7 -36z m-28 -68 c-12 -20 -14 -14 -5 12 4 9 9 14 11 11 3 -2 0 -13 -6 -23z m196 0 c-4 -3 -7 0 -7 7 0 7 3 10 7 7 3 -4 3 -10 0 -14z m-13533 -937 c32 -45 85 -135 118 -201 95 -188 192 -365 252 -459 31 -47 54 -86 51 -86 -22 0 -454 704 -519 845 l-27 60 33 -39 c18 -21 59 -75 92 -120z m12706 -566 c-6 -11 -13 -20 -16 -20 -2 0 0 9 6 20 6 11 13 20 16 20 2 0 0 -9 -6 -20z m-30 -50 c-6 -11 -13 -20 -16 -20 -2 0 0 9 6 20 6 11 13 20 16 20 2 0 0 -9 -6 -20z m-20 -34 c0 -3 -5 -8 -12 -12 -7 -4 -8 -3 -4 4 7 12 16 16 16 8z m-12215 -116 c3 -5 4 -10 1 -10 -3 0 -8 5 -11 10 -3 6 -4 10 -1 10 3 0 8 -4 11 -10z m8256 -2946 c-68 -30 -101 -39 -101 -27 0 6 30 19 68 31 90 27 98 26 33 -4z m-172 -68 c-2 -2 -65 -26 -139 -54 -262 -98 -703 -214 -990 -261 -383 -63 -498 -73 -883 -78 -197 -3 -384 -2 -415 2 -55 7 -56 7 -31 21 15 7 46 18 70 24 89 20 576 46 804 41 120 -2 186 3 330 24 217 31 595 112 759 162 66 20 144 37 175 38 33 2 106 20 176 43 109 36 155 49 144 38z"/>
 <path d="M10327 10955 c-129 -108 -211 -210 -282 -348 -37 -70 -64 -131 -61 -134 9 -9 71 53 112 112 66 95 112 155 146 193 56 62 166 210 167 225 2 17 -22 4 -82 -48z"/>
 <path d="M11611 10908 c6 -12 26 -42 44 -67 17 -25 47 -75 65 -111 66 -130 207 -316 225 -298 15 14 -86 209 -162 313 -37 50 -165 185 -175 185 -5 0 -3 -10 3 -22z"/>
 <path d="M10915 10655 c-100 -35 -413 -211 -590 -331 -60 -41 -148 -93 -195 -115 -149 -71 -172 -83 -208 -116 l-35 -33 7 -87 c7 -84 39 -238 56 -272 4 -9 29 -59 55 -111 67 -138 122 -213 232 -321 106 -105 166 -150 264 -200 103 -51 165 -68 307 -84 222 -25 328 -18 467 31 171 60 403 229 481 349 10 17 22 35 27 40 50 65 122 208 155 310 30 92 53 234 42 255 -10 18 -102 80 -120 80 -6 0 -10 4 -10 8 0 5 -10 13 -23 19 -23 11 -229 177 -278 224 -22 22 -99 82 -219 171 -95 71 -188 126 -255 150 -116 42 -128 44 -160 33z"/>
 <path d="M9010 6493 c1 -10 12 -36 25 -58 68 -111 68 -111 63 -222 -3 -57 -2 -103 1 -103 3 0 16 12 29 28 19 22 22 23 18 7 -2 -11 -7 -51 -11 -90 -7 -78 -4 -78 43 -1 l30 50 7 -38 c4 -21 5 -66 2 -99 -5 -54 -4 -60 8 -44 16 22 22 98 30 360 l5 197 -37 0 c-21 1 -65 7 -98 15 -83 20 -115 19 -115 -2z"/>
 <path d="M9214 5179 c-6 -8 -19 -29 -28 -47 -9 -17 -45 -67 -79 -110 -82 -102 -99 -136 -95 -191 3 -41 8 -48 63 -91 75 -58 142 -96 152 -86 11 11 16 420 6 485 -6 42 -10 51 -19 40z"/>
 <path d="M10170 4175 c7 -8 16 -15 21 -15 5 0 9 7 9 15 0 9 -9 15 -21 15 -18 0 -19 -2 -9 -15z"/>
 <path d="M6235 15449 c-127 -16 -276 -60 -515 -151 -334 -127 -311 -117 -277 -117 69 -2 217 39 502 139 66 23 189 62 274 86 85 24 156 46 159 49 7 7 -60 4 -143 -6z"/>
 <path d="M7115 14900 c-25 -11 1 -11 35 0 20 6 21 8 5 8 -11 0 -29 -3 -40 -8z"/>
 <path d="M6495 14804 c-149 -36 -346 -118 -415 -173 l-25 -21 46 0 c81 0 303 75 509 173 l75 35 -65 0 c-36 0 -92 -6 -125 -14z"/>
 <path d="M4405 14766 c-79 -26 -226 -98 -312 -153 -112 -71 -464 -333 -449 -333 32 0 212 103 374 213 92 63 232 153 312 201 138 83 159 97 149 96 -2 -1 -35 -11 -74 -24z"/>
 <path d="M5912 14749 c-29 -5 -112 -28 -185 -52 -73 -24 -163 -51 -200 -60 -68 -17 -98 -28 -347 -132 -115 -48 -128 -56 -87 -51 26 3 82 19 124 36 42 16 78 28 80 26 2 -1 -38 -24 -89 -49 -51 -26 -87 -47 -79 -47 8 0 104 36 215 80 170 67 360 137 614 226 87 31 65 41 -46 23z"/>
 <path d="M6728 14463 c18 -2 45 -2 60 0 15 2 0 4 -33 4 -33 0 -45 -2 -27 -4z"/>
 <path d="M7104 14435 c-4 -9 -2 -35 4 -58 8 -30 10 -33 7 -9 l-4 32 66 0 c66 0 67 0 48 19 -11 10 -41 22 -68 26 -38 5 -48 3 -53 -10z"/>
 <path d="M6710 14416 c0 -8 4 -17 9 -20 5 -4 7 3 4 14 -6 23 -13 26 -13 6z"/>
 <path d="M6665 14360 l-30 -8 30 -1 c47 -2 75 -12 75 -27 0 -7 5 -16 10 -19 6 -4 5 8 -3 27 -14 35 -32 41 -82 28z"/>
 <path d="M5727 14324 c-4 -4 -7 -12 -7 -18 0 -6 4 -5 9 3 7 11 15 11 42 2 19 -6 29 -7 24 -2 -14 14 -59 23 -68 15z"/>
 <path d="M6051 14299 c-62 -16 -117 -32 -122 -34 -8 -6 -14 -33 -23 -116 l-5 -46 127 43 c103 35 271 78 540 139 15 4 24 0 28 -10 14 -35 -24 -51 -191 -80 -92 -17 -125 -28 -112 -41 17 -17 351 57 423 94 l39 20 -30 13 c-45 19 -224 17 -339 -5 -54 -10 -178 -45 -274 -77 -97 -33 -180 -59 -185 -59 -4 0 -7 21 -5 47 3 53 -5 48 198 108 147 44 94 47 -69 4z"/>
 <path d="M5823 14283 c4 -3 10 -3 14 0 3 4 0 7 -7 7 -7 0 -10 -3 -7 -7z"/>
 <path d="M5860 14280 c-9 -6 -10 -10 -3 -10 6 0 15 5 18 10 8 12 4 12 -15 0z"/>
 <path d="M5700 14240 c0 -7 3 -10 7 -7 3 4 3 10 0 14 -4 3 -7 0 -7 -7z"/>
 <path d="M6770 14221 c0 -6 4 -13 10 -16 6 -3 7 1 4 9 -7 18 -14 21 -14 7z"/>
 <path d="M5585 14140 c-270 -106 -559 -236 -707 -317 -133 -72 -174 -99 -105 -69 17 8 113 51 212 96 327 149 712 310 742 310 7 0 12 6 11 13 -2 8 7 11 27 9 16 -2 28 -2 25 0 -3 2 -12 8 -20 14 -11 8 -56 -5 -185 -56z"/>
 <path d="M6798 14095 c-3 -3 -63 -18 -134 -34 l-129 -28 -9 -46 c-6 -32 -6 -55 2 -72 14 -31 36 -33 27 -2 -6 20 -4 20 19 -6 18 -19 26 -23 26 -13 0 24 129 60 192 54 49 -5 50 -5 44 21 -3 14 -10 48 -16 75 -11 53 -14 59 -22 51z"/>
 <path d="M5967 14069 c-27 -10 -53 -17 -58 -14 -5 4 -9 -7 -9 -24 0 -30 0 -30 28 -15 15 8 53 24 85 35 31 11 55 25 52 30 -9 14 -45 10 -98 -12z"/>
 <path d="M6371 14008 c1 -18 2 -19 6 -5 4 15 7 16 21 5 15 -12 16 -11 3 5 -19 24 -31 21 -30 -5z"/>
 <path d="M4254 14002 c-87 -30 -292 -163 -434 -281 -52 -43 -248 -217 -280 -249 -35 -34 34 12 167 111 147 110 387 279 518 367 118 78 121 84 29 52z"/>
 <path d="M6295 13969 c-4 -6 -5 -12 -2 -15 2 -3 7 2 10 11 7 17 1 20 -8 4z"/>
 <path d="M6313 13953 c-3 -10 -8 -21 -10 -25 -2 -5 0 -8 5 -8 5 0 12 11 14 25 6 29 0 33 -9 8z"/>
 <path d="M6386 13937 c3 -10 9 -15 12 -12 3 3 0 11 -7 18 -10 9 -11 8 -5 -6z"/>
 <path d="M6454 13933 c23 -27 46 -30 46 -5 0 14 -2 15 -10 2 -7 -12 -12 -11 -32 5 l-23 20 19 -22z"/>
 <path d="M6337 13927 c-3 -8 1 -14 8 -14 7 0 11 6 8 14 -3 7 -6 13 -8 13 -2 0 -5 -6 -8 -13z"/>
 <path d="M5900 13915 c0 -13 4 -14 20 -5 11 6 20 13 20 15 0 3 -9 5 -20 5 -11 0 -20 -7 -20 -15z"/>
 <path d="M5710 13900 c-54 -18 -90 -49 -90 -76 0 -18 9 -18 61 5 85 36 89 36 90 -1 1 -30 2 -29 10 12 9 44 4 80 -9 80 -4 -1 -32 -9 -62 -20z"/>
 <path d="M6417 13894 c-4 -4 -7 -14 -7 -23 0 -11 3 -12 11 -4 6 6 10 16 7 23 -2 6 -7 8 -11 4z"/>
 <path d="M6806 13868 c-27 -4 -79 -8 -117 -10 -43 -2 -64 -7 -58 -12 5 -6 9 -18 9 -29 0 -10 4 -15 10 -12 5 3 8 0 5 -7 -3 -7 -1 -20 5 -28 8 -13 22 -10 105 17 52 17 95 28 94 25 0 -4 -23 -25 -52 -46 -58 -45 -50 -55 22 -31 49 16 50 16 44 53 -12 88 -13 88 -67 80z"/>
 <path d="M6254 13856 c-3 -8 -4 -27 -2 -43 3 -23 5 -20 9 15 5 43 2 53 -7 28z"/>
 <path d="M6350 13820 c0 -7 3 -10 7 -7 3 4 3 10 0 14 -4 3 -7 0 -7 -7z"/>
 <path d="M5910 13732 l5 -57 3 49 c2 27 0 52 -5 57 -4 4 -6 -18 -3 -49z"/>
 <path d="M6670 13740 c0 -7 3 -10 7 -7 3 4 3 10 0 14 -4 3 -7 0 -7 -7z"/>
 <path d="M6880 13711 c0 -11 4 -22 9 -25 4 -3 6 6 3 19 -5 30 -12 33 -12 6z"/>
 <path d="M6087 13661 c-87 -20 -158 -39 -158 -43 1 -5 1 -26 1 -47 0 -38 1 -39 28 -30 68 24 275 79 281 75 4 -3 8 15 9 40 1 24 1 43 -1 43 -1 -1 -73 -18 -160 -38z"/>
 <path d="M5741 13664 c0 -11 3 -14 6 -6 3 7 2 16 -1 19 -3 4 -6 -2 -5 -13z"/>
 <path d="M4534 13626 c-236 -116 -835 -564 -1104 -825 l-115 -112 195 159 c178 145 419 335 513 405 36 27 53 18 25 -12 -11 -11 -8 -12 17 -7 46 11 69 30 129 105 77 96 137 143 345 268 58 34 101 63 95 63 -6 0 -51 -20 -100 -44z m-384 -296 c-6 -11 -21 -20 -33 -20 -20 0 -19 2 8 20 37 25 38 25 25 0z"/>
 <path d="M6890 13660 c0 -7 3 -10 7 -7 3 4 3 10 0 14 -4 3 -7 0 -7 -7z"/>
 <path d="M5270 13614 c-107 -36 -190 -77 -190 -94 0 -6 4 -10 10 -10 35 0 333 139 300 139 -8 1 -62 -15 -120 -35z"/>
 <path d="M6870 13621 c0 -6 9 -15 21 -21 18 -10 20 -9 17 7 -3 19 -38 32 -38 14z"/>
 <path d="M6235 13569 c-4 -6 -5 -12 -2 -15 2 -3 7 2 10 11 7 17 1 20 -8 4z"/>
 <path d="M6911 13564 c0 -11 3 -14 6 -6 3 7 2 16 -1 19 -3 4 -6 -2 -5 -13z"/>
 <path d="M6920 13510 c0 -7 3 -10 7 -7 3 4 3 10 0 14 -4 3 -7 0 -7 -7z"/>
 <path d="M6210 13430 c0 -7 3 -10 7 -7 3 4 3 10 0 14 -4 3 -7 0 -7 -7z"/>
 <path d="M6940 13424 c0 -13 -11 -24 -32 -32 l-33 -13 28 -15 c15 -8 27 -18 27 -22 0 -4 -47 -18 -104 -31 -108 -25 -164 -47 -91 -36 54 9 196 35 216 41 14 4 15 13 7 61 -9 59 -18 82 -18 47z"/>
 <path d="M6202 13344 c-4 -8 -62 -33 -127 -55 -66 -22 -120 -41 -121 -42 -1 -1 -6 -20 -10 -42 -6 -34 -5 -38 7 -29 16 13 202 84 219 84 7 0 9 -9 5 -22 -5 -20 -4 -21 5 -5 6 9 8 22 5 27 -3 6 -2 10 3 10 5 0 13 20 19 45 11 47 10 55 -5 29z"/>
 <path d="M6670 13280 c0 -7 3 -10 7 -7 3 4 3 10 0 14 -4 3 -7 0 -7 -7z"/>
 <path d="M6973 13266 c2 -26 -5 -33 -78 -73 -100 -55 -205 -125 -205 -137 0 -17 86 2 194 43 102 38 110 40 122 23 10 -14 10 -7 -1 33 -7 28 -18 70 -23 95 -6 26 -10 33 -9 16z"/>
 <path d="M6150 13195 c-7 -9 -11 -17 -9 -20 3 -2 10 5 17 15 14 24 10 26 -8 5z"/>
 <path d="M6647 13191 c-4 -17 -3 -21 5 -13 5 5 8 16 6 23 -3 8 -7 3 -11 -10z"/>
 <path d="M5940 13121 l0 -40 53 19 c96 33 93 31 71 47 -10 7 -42 13 -71 13 l-53 0 0 -39z"/>
 <path d="M6114 13128 c-4 -7 -3 -8 4 -4 12 7 16 16 8 16 -3 0 -8 -5 -12 -12z"/>
 <path d="M6012 13053 c-40 -14 -71 -27 -69 -29 2 -3 16 0 31 6 15 5 42 10 60 10 29 0 67 24 55 34 -2 2 -37 -8 -77 -21z"/>
 <path d="M6616 13063 c-6 -14 -5 -15 5 -6 7 7 10 15 7 18 -3 3 -9 -2 -12 -12z"/>
 <path d="M6939 13040 c-101 -6 -120 -17 -112 -64 3 -20 1 -36 -6 -40 -6 -4 -11 -11 -11 -16 0 -15 60 1 140 37 41 18 80 31 86 29 9 -3 10 3 3 26 -4 17 -10 31 -11 32 -2 1 -42 -1 -89 -4z"/>
 <path d="M6590 12960 c0 -7 3 -10 7 -7 3 4 3 10 0 14 -4 3 -7 0 -7 -7z"/>
 <path d="M7009 12925 c-25 -7 -54 -17 -65 -23 -15 -9 -7 -11 47 -12 38 0 70 -5 77 -12 10 -10 10 -5 1 22 -7 19 -12 35 -13 36 -1 1 -22 -4 -47 -11z"/>
 <path d="M7016 12748 c-32 -39 -81 -84 -107 -101 -68 -42 -63 -67 13 -67 26 0 29 -2 18 -15 -10 -12 -9 -16 6 -22 20 -8 192 -9 200 0 5 4 -6 58 -31 152 -7 28 -16 67 -20 88 -3 20 -9 37 -13 37 -4 0 -34 -32 -66 -72z"/>
 <path d="M6527 12760 c-10 -26 -12 -38 -4 -32 7 6 34 17 62 25 47 13 48 14 26 26 -12 7 -30 10 -38 6 -9 -3 -19 -1 -23 5 -4 6 -14 -8 -23 -30z"/>
 <path d="M3906 12740 c-128 -83 -211 -160 -171 -160 25 0 285 209 260 210 -5 0 -45 -23 -89 -50z"/>
 <path d="M6476 12663 c-6 -14 -5 -15 5 -6 7 7 10 15 7 18 -3 3 -9 -2 -12 -12z"/>
 <path d="M6403 12583 c4 -3 10 -3 14 0 3 4 0 7 -7 7 -7 0 -10 -3 -7 -7z"/>
 <path d="M3758 12531 c-32 -16 -72 -40 -90 -52 -44 -30 -221 -160 -231 -169 -15 -13 24 -40 59 -40 42 0 43 -9 3 -57 -18 -21 43 39 135 134 91 94 179 181 194 192 24 18 25 20 7 21 -11 0 -46 -13 -77 -29z"/>
 <path d="M5690 12539 c-7 -11 -10 -23 -7 -25 2 -2 9 7 15 21 14 30 7 33 -8 4z"/>
 <path d="M1937 12523 c-20 -16 -62 -62 -93 -103 l-56 -74 27 -24 c33 -28 44 -25 69 17 15 27 17 37 7 58 -10 22 -9 27 11 41 36 25 98 88 98 101 0 19 -25 12 -63 -16z"/>
 <path d="M6275 12530 c-16 -7 -17 -9 -3 -9 9 -1 20 4 23 9 7 11 7 11 -20 0z"/>
 <path d="M7075 12518 c-102 -20 -310 -71 -318 -78 -4 -4 16 -10 45 -13 29 -3 76 -12 103 -20 74 -22 228 -49 256 -45 27 3 27 4 8 101 -15 73 -11 71 -94 55z"/>
 <path d="M6303 12493 c4 -3 10 -3 14 0 3 4 0 7 -7 7 -7 0 -10 -3 -7 -7z"/>
 <path d="M6418 12463 c7 -3 16 -2 19 1 4 3 -2 6 -13 5 -11 0 -14 -3 -6 -6z"/>
 <path d="M5624 12438 c-4 -7 -3 -8 4 -4 12 7 16 16 8 16 -3 0 -8 -5 -12 -12z"/>
 <path d="M5605 12409 c-4 -6 -5 -12 -2 -15 2 -3 7 2 10 11 7 17 1 20 -8 4z"/>
 <path d="M5564 12348 c-4 -7 -3 -8 4 -4 12 7 16 16 8 16 -3 0 -8 -5 -12 -12z"/>
 <path d="M5358 12310 c-102 -42 -201 -128 -178 -155 9 -10 4 -15 -20 -20 -17 -4 -29 -12 -27 -18 6 -20 46 -19 81 1 18 11 46 27 62 37 16 9 0 -10 -36 -44 -36 -33 -88 -73 -117 -88 -40 -21 -49 -30 -37 -36 16 -9 84 29 299 167 55 35 103 62 106 61 3 -2 19 23 37 57 19 38 25 55 14 45 -9 -8 -41 -27 -70 -41 -47 -24 -55 -25 -73 -13 -19 14 -19 15 11 41 39 32 18 34 -52 6z"/>
 <path d="M6550 12229 c-63 -11 -142 -23 -174 -27 -36 -4 -62 -13 -67 -22 -4 -8 -37 -69 -73 -135 -77 -143 -96 -211 -99 -353 -1 -93 1 -112 20 -148 12 -23 30 -49 38 -58 22 -22 98 -188 120 -263 18 -61 37 -74 50 -34 5 16 58 102 92 151 43 59 260 342 319 415 35 44 89 112 118 150 30 39 102 121 160 184 59 63 105 119 103 125 -3 8 -64 10 -193 7 -156 -3 -197 -1 -237 13 -26 9 -51 16 -55 15 -4 -1 -59 -10 -122 -20z"/>
 <path d="M2563 12182 c-39 -39 -81 -98 -128 -182 -38 -69 -93 -160 -123 -204 -29 -43 -51 -80 -49 -82 2 -2 29 31 60 74 31 42 104 141 162 220 102 139 155 216 155 227 0 16 -27 -2 -77 -53z"/>
 <path d="M5451 12114 c0 -11 3 -14 6 -6 3 7 2 16 -1 19 -3 4 -6 -2 -5 -13z"/>
 <path d="M14617 11493 c130 -263 281 -578 336 -701 55 -122 102 -220 105 -218 13 14 -98 334 -173 498 -94 204 -480 898 -500 898 -2 0 102 -215 232 -477z"/>
 <path d="M1614 11796 c-85 -114 -274 -453 -361 -649 -82 -185 -220 -561 -276 -757 -41 -142 -149 -556 -168 -643 -23 -109 -21 -48 5 115 15 89 29 177 31 193 13 78 -71 -170 -110 -325 -116 -464 -153 -772 -162 -1350 -7 -410 13 -984 33 -976 9 3 15 -6 18 -27 3 -18 10 -59 16 -91 11 -63 13 -112 5 -105 -2 3 -9 30 -14 60 l-9 54 -1 -55 c-3 -179 69 -690 134 -951 35 -139 149 -502 204 -654 54 -145 221 -528 228 -521 3 3 -21 80 -52 173 -55 160 -67 197 -58 181 7 -13 23 -9 23 5 0 7 -30 105 -66 218 -36 112 -81 258 -99 324 -25 89 -36 114 -41 98 -3 -13 -9 -23 -13 -23 -11 0 -78 263 -106 413 -34 185 -72 462 -80 572 -3 50 -10 142 -16 205 -21 254 -33 981 -19 1160 22 274 63 558 96 665 7 20 6 20 -15 1 -11 -11 -24 -16 -28 -13 -3 4 -1 56 6 117 12 103 15 112 45 142 42 42 69 116 96 256 11 62 31 144 44 184 13 40 29 102 35 138 18 95 76 317 121 458 113 352 243 673 567 1391 13 29 23 55 21 56 -2 2 -17 -16 -34 -39z m-827 -2138 c-3 -8 -6 -5 -6 6 -1 11 2 17 5 13 3 -3 4 -12 1 -19z m130 -3690 c-3 -8 -6 -5 -6 6 -1 11 2 17 5 13 3 -3 4 -12 1 -19z m60 -202 c-3 -10 -58 165 -56 180 0 5 14 -31 30 -81 16 -49 27 -94 26 -99z m31 -96 c0 -8 -6 1 -13 20 -7 19 -13 42 -13 50 0 8 6 -1 13 -20 7 -19 13 -42 13 -50z m30 -95 c0 -5 -6 4 -13 20 -8 17 -14 37 -14 45 0 8 7 -1 14 -20 7 -19 13 -39 13 -45z m9 -32 c-4 -3 -7 0 -7 7 0 7 3 10 7 7 3 -4 3 -10 0 -14z m23 -48 c0 -5 -5 -3 -10 5 -5 8 -10 20 -10 25 0 6 5 3 10 -5 5 -8 10 -19 10 -25z"/>
 <path d="M955 10816 c-28 -30 -105 -189 -105 -217 0 -10 43 -29 65 -29 8 0 19 17 24 37 8 30 7 42 -5 61 -15 23 -14 26 14 66 29 40 62 100 62 111 0 15 -26 1 -55 -29z"/>
 <path d="M15060 10550 c0 -7 3 -10 7 -7 3 4 3 10 0 14 -4 3 -7 0 -7 -7z"/>
 <path d="M6060 10325 c0 -10 7 -15 18 -13 21 4 19 22 -2 26 -10 2 -16 -3 -16 -13z"/>
 <path d="M15220 10154 c0 -11 79 -412 161 -810 32 -160 73 -387 91 -505 l33 -214 3 85 c4 97 -12 301 -34 440 -23 145 -138 634 -196 830 -48 166 -58 195 -58 174z"/>
 <path d="M955 9928 l-16 -33 20 25 c20 24 26 40 16 40 -2 0 -12 -15 -20 -32z"/>
 <path d="M477 9056 c-52 -164 -87 -526 -63 -661 7 -44 9 -47 17 -26 18 46 29 160 39 396 6 132 15 262 20 289 13 66 7 67 -13 2z"/>
 <path d="M15723 8230 c-12 -241 -54 -700 -88 -947 -9 -61 -33 -212 -55 -334 -22 -122 -38 -224 -36 -226 5 -6 83 300 110 432 25 123 36 204 62 455 14 133 31 790 22 850 -2 14 -9 -90 -15 -230z"/>
 <path d="M673 8065 c-3 -9 -3 -18 -1 -21 3 -3 8 4 11 16 6 23 -1 27 -10 5z"/>
 <path d="M15498 7934 c-28 -69 -41 -163 -42 -299 0 -152 17 -256 49 -293 l23 -27 17 59 c23 79 22 213 -5 413 -11 87 -22 165 -23 173 -1 8 -10 -3 -19 -26z"/>
 <path d="M434 7016 c13 -251 57 -492 107 -587 l24 -44 3 32 c4 42 -20 178 -69 391 -22 95 -44 207 -49 249 -15 120 -23 100 -16 -41z"/>
 <path d="M15610 6420 c0 -7 3 -10 7 -7 3 4 3 10 0 14 -4 3 -7 0 -7 -7z"/>
 <path d="M15541 6202 c-108 -337 -300 -833 -428 -1106 -154 -329 -163 -355 -59 -172 164 286 248 474 390 878 57 164 173 584 163 594 -2 2 -31 -85 -66 -194z"/>
 <path d="M1360 4438 c0 -14 14 -57 31 -95 22 -50 29 -78 26 -104 -5 -35 -2 -39 59 -88 58 -45 64 -48 64 -28 0 22 -47 119 -81 167 -9 14 -36 59 -58 100 -32 59 -41 69 -41 48z"/>
 <path d="M14748 4396 c-29 -36 -76 -102 -104 -148 -65 -105 -201 -332 -227 -378 l-19 -35 36 40 c57 63 164 225 274 413 55 94 99 172 97 172 -3 0 -28 -29 -57 -64z"/>
 <path d="M2480 2851 c0 -8 24 -46 53 -85 60 -80 70 -99 55 -114 -6 -6 7 -17 39 -31 26 -12 61 -29 77 -37 33 -17 40 -14 32 13 -8 25 -256 271 -256 254z"/>
 </g>

</svg>