<!DOCTYPE svg PUBLIC "-//W3C//DTD SVG 20010904//EN" "http://www.w3.org/TR/2001/REC-SVG-20010904/DTD/svg10.dtd">
<svg version="1.0" xmlns="http://www.w3.org/2000/svg" width="1600px" height="1600px" viewBox="0 0 16000 16000" preserveAspectRatio="xMidYMid meet">
<g id="layer101" fill="#000000" stroke="none">
 <path d="M6650 14481 c0 -5 18 -62 41 -127 29 -86 67 -249 135 -584 52 -256 97 -478 100 -495 8 -41 53 -232 65 -275 30 -100 145 -606 140 -612 -11 -11 -222 22 -295 46 -59 20 -99 25 -241 30 -150 5 -186 10 -300 40 -110 28 -125 35 -100 41 204 48 260 125 356 490 34 129 63 256 79 345 20 111 6 352 -25 412 -8 17 -15 37 -15 44 0 17 -78 114 -91 114 -7 0 -5 -10 5 -25 9 -13 16 -32 16 -42 0 -11 -12 1 -31 30 -30 45 -58 65 -45 31 5 -12 1 -14 -17 -8 -25 8 -23 6 -59 61 -29 44 -56 68 -45 41 9 -24 -4 -30 -20 -10 -12 16 -15 15 -38 -13 -14 -16 -25 -35 -25 -40 0 -6 -8 -27 -19 -48 -15 -29 -20 -70 -26 -204 -4 -92 -14 -188 -21 -213 -8 -25 -14 -64 -14 -88 0 -67 -30 -174 -56 -203 -13 -14 -24 -32 -24 -41 0 -8 -7 -21 -15 -28 -8 -7 -15 -18 -15 -25 0 -7 -9 -24 -21 -39 -17 -22 -28 -26 -69 -26 -27 0 -52 -4 -55 -10 -3 -5 -11 -10 -17 -10 -7 0 -8 37 -3 123 11 183 11 233 -3 337 -18 133 -33 307 -37 425 -3 89 1 167 22 413 4 48 2 72 -5 72 -19 0 -42 -43 -42 -77 0 -42 -14 -49 -50 -23 -45 32 -90 43 -97 23 -4 -9 1 -21 10 -28 24 -17 21 -25 -8 -25 -39 0 -30 -28 15 -46 45 -18 54 -34 15 -26 -33 6 -34 -22 -2 -43 42 -27 50 -60 27 -112 -23 -52 -25 -85 -8 -112 9 -15 8 -43 -6 -128 -10 -59 -22 -121 -28 -138 -15 -48 -26 -268 -17 -365 5 -54 4 -111 -2 -147 -20 -113 -28 -315 -17 -437 5 -65 7 -128 4 -140 -3 -13 -42 -72 -85 -132 -50 -67 -99 -149 -128 -214 -44 -96 -48 -111 -48 -180 0 -41 8 -111 17 -155 9 -44 24 -127 33 -185 16 -107 44 -241 71 -340 9 -30 26 -104 39 -165 13 -60 29 -128 36 -150 6 -22 14 -80 18 -130 4 -49 14 -111 21 -137 13 -45 11 -63 -39 -337 -59 -325 -66 -384 -57 -435 8 -41 55 -100 97 -122 36 -18 115 -18 169 1 24 8 44 14 45 13 3 -4 -16 -432 -19 -436 -2 -1 -78 11 -169 28 -92 16 -173 30 -182 30 -13 0 -15 -54 -15 -462 l0 -463 -404 -655 c-222 -360 -401 -658 -397 -661 3 -4 127 -28 275 -53 220 -39 271 -45 281 -34 10 12 421 733 485 850 14 26 27 48 30 48 3 0 29 -53 57 -117 29 -65 125 -280 214 -478 88 -198 173 -387 187 -420 14 -33 28 -63 32 -68 5 -6 545 -107 577 -107 6 0 -173 366 -397 813 l-408 812 -2 520 c-1 286 -2 606 -1 712 l1 192 73 36 c39 20 79 43 87 50 8 7 45 31 82 53 l66 41 51 -77 c28 -42 79 -113 115 -156 35 -43 84 -110 107 -148 180 -285 253 -372 404 -484 33 -24 65 -49 72 -54 16 -14 46 -13 61 2 22 22 12 52 -48 147 -80 128 -94 172 -86 278 5 75 4 85 -14 103 -11 11 -31 20 -45 20 -38 0 -102 29 -119 54 -20 31 -100 236 -121 311 -10 33 -26 77 -37 98 l-19 37 26 10 c15 6 30 10 34 10 14 0 243 140 280 171 20 16 42 34 49 40 17 13 15 44 -3 59 -19 16 -84 9 -180 -19 -102 -30 -171 -27 -257 9 -38 16 -78 30 -87 30 -21 0 -52 -34 -69 -73 -10 -24 -15 -26 -32 -17 -25 13 -58 66 -89 140 -13 30 -39 82 -58 115 -32 55 -34 63 -23 90 6 17 17 45 23 63 7 21 36 56 75 90 114 100 315 317 474 512 102 124 175 225 403 550 65 95 133 181 149 193 l29 20 -6 181 c-15 417 -20 455 -148 1156 -21 118 -55 289 -73 380 -19 91 -50 240 -68 332 l-33 168 -192 0 c-106 0 -193 -4 -193 -9z m-355 -533 c16 -41 8 -52 -13 -18 -7 12 -18 18 -24 14 -8 -5 -9 -1 -5 10 4 10 7 25 7 34 0 23 16 4 35 -40z m53 40 c7 -7 12 -21 12 -33 0 -12 5 -26 11 -32 8 -8 8 -16 0 -30 -10 -17 -10 -17 -11 2 0 11 -6 29 -14 40 -30 45 -29 84 2 53z m-48 -148 c-15 -28 -24 -19 -16 16 5 19 10 24 17 17 8 -8 7 -18 -1 -33z m384 -1586 c48 -17 159 -16 343 2 51 5 64 4 69 -9 8 -22 0 -34 -101 -139 -50 -51 -112 -122 -140 -158 -27 -36 -122 -155 -210 -265 -148 -183 -297 -391 -339 -472 -22 -43 -32 -42 -40 6 -10 63 -86 243 -121 286 -64 80 -68 95 -63 240 6 150 22 198 107 338 28 45 56 97 62 115 11 32 14 34 48 29 20 -2 65 2 101 10 36 9 99 19 140 23 41 4 80 8 86 9 6 0 32 -6 58 -15z m-645 -1898 c9 -11 7 -15 -11 -19 -27 -7 -32 -3 -25 18 8 19 21 19 36 1z"/>
 <path d="M10674 13935 c7 -38 -1 -59 -58 -144 -31 -46 -36 -61 -36 -113 0 -51 -3 -61 -20 -65 -17 -4 -20 -14 -20 -56 l0 -51 -20 22 c-26 28 -28 28 -42 -5 -11 -28 -11 -28 -21 20 -19 95 -27 59 -63 -268 -16 -153 -15 -249 8 -439 10 -92 36 -160 91 -241 33 -48 33 -56 4 -103 -32 -50 -47 -97 -47 -145 0 -33 7 -46 45 -84 50 -48 59 -89 29 -131 -19 -27 -35 -28 -104 -1 -49 19 -65 20 -145 13 -110 -10 -155 -9 -457 3 -168 7 -242 14 -253 23 -9 7 -32 42 -51 77 -38 67 -54 73 -54 19 0 -42 -22 -96 -50 -121 -21 -19 -22 -19 -81 1 l-59 21 0 -23 c0 -18 17 -35 73 -73 72 -48 111 -94 141 -165 10 -25 21 -36 35 -36 17 0 21 6 21 33 -1 17 -7 43 -14 56 -11 20 -11 28 3 52 19 34 24 33 164 -23 106 -42 176 -57 392 -83 77 -9 150 -18 162 -21 38 -8 74 -95 93 -229 8 -54 19 -82 47 -123 30 -44 42 -77 64 -180 32 -146 33 -144 -55 -188 -99 -50 -185 -115 -278 -212 -132 -138 -201 -248 -268 -427 -25 -68 -27 -71 -91 -106 -108 -59 -263 -177 -400 -305 -50 -46 -101 -91 -112 -98 -12 -8 -71 -21 -132 -30 -148 -23 -194 -34 -232 -57 -42 -26 -73 -78 -73 -122 0 -51 21 -67 88 -67 47 0 72 7 132 38 112 57 177 81 199 75 36 -9 68 6 134 61 52 45 88 64 198 107 74 28 150 52 169 53 l35 1 12 -105 c15 -138 26 -189 63 -296 35 -102 90 -213 148 -299 57 -86 213 -233 312 -297 104 -66 120 -73 245 -118 l99 -35 16 -45 c11 -31 15 -70 12 -123 l-4 -78 -66 7 c-128 15 -320 8 -416 -15 -195 -47 -346 -161 -425 -322 -44 -90 -65 -173 -81 -321 -13 -124 -13 -1618 0 -1618 5 0 112 -18 237 -39 125 -22 239 -41 253 -43 l25 -3 0 815 c0 748 2 820 18 880 34 124 110 207 226 245 43 14 75 16 165 12 169 -7 299 -58 383 -150 48 -52 84 -119 109 -203 17 -54 18 -128 21 -911 l4 -853 22 -5 c35 -8 487 -85 498 -85 15 0 6 1649 -10 1752 -33 220 -108 390 -226 516 -133 142 -300 234 -535 296 l-85 23 -3 105 c-2 81 1 108 11 117 8 6 68 16 133 21 155 12 212 23 310 59 177 64 288 134 420 265 170 169 280 377 335 634 6 28 15 52 21 52 6 0 47 -22 92 -49 44 -26 117 -67 161 -90 105 -56 199 -132 257 -210 33 -44 82 -89 155 -143 130 -96 172 -119 225 -121 48 -2 68 19 68 72 0 93 -51 162 -146 196 -166 59 -185 72 -245 162 -25 37 -81 122 -124 188 -93 140 -212 268 -304 327 -121 76 -139 90 -146 106 -4 10 -17 51 -30 92 -33 108 -50 151 -96 243 -59 117 -113 189 -222 294 -115 112 -206 172 -341 227 -101 41 -101 41 -128 96 -54 109 -58 301 -9 495 l17 70 140 0 c76 0 193 -7 259 -15 131 -16 384 -19 595 -6 l135 8 61 -68 c33 -38 69 -84 80 -102 13 -23 25 -32 39 -30 16 2 21 12 23 51 3 48 22 68 22 23 0 -37 10 -56 30 -56 21 0 30 19 30 63 0 54 10 61 83 54 50 -5 68 -3 77 8 22 26 3 41 -81 64 -46 13 -103 35 -127 51 -31 21 -73 34 -160 50 -64 12 -184 35 -266 51 -82 16 -179 29 -215 29 -92 0 -258 25 -371 55 -115 31 -303 47 -455 38 -93 -5 -112 -3 -123 10 -26 31 4 86 104 196 93 101 151 196 168 276 4 17 17 50 29 75 30 64 36 302 12 530 -17 162 -20 178 -45 231 -10 21 -10 35 0 64 10 32 10 38 -6 49 -13 10 -16 22 -11 52 3 21 2 48 -2 59 -7 16 -10 11 -15 -25 -18 -121 -46 -177 -81 -163 -24 9 -20 118 5 159 12 19 17 35 11 38 -6 4 -15 -3 -21 -14 -16 -30 -34 -25 -62 18 -42 61 -46 73 -40 116 5 42 -2 43 -22 4 -20 -39 -36 -33 -37 14 0 24 -3 36 -6 28 -3 -8 -9 -17 -12 -20 -3 -3 -17 -26 -31 -52 -13 -27 -30 -48 -37 -48 -6 0 -15 20 -19 45 -4 28 -11 45 -20 45 -8 0 -14 -6 -14 -14 0 -24 -57 -47 -85 -34 -21 10 -23 15 -18 64 4 40 1 65 -12 94 -22 50 -40 52 -31 5z m-349 -2958 c-24 -35 -77 -101 -116 -147 -39 -45 -99 -122 -133 -169 -86 -122 -127 -171 -143 -171 -7 0 -13 2 -13 5 0 3 30 64 67 136 59 116 79 144 162 232 95 99 185 175 208 176 7 1 -8 -28 -32 -62z m1318 -104 c12 -16 43 -54 68 -84 79 -94 200 -322 181 -341 -18 -18 -162 173 -222 293 -23 46 -57 105 -75 130 -18 25 -38 56 -45 69 -12 22 -10 21 29 -7 24 -17 52 -44 64 -60z m-683 -204 c41 -11 103 -36 137 -54 86 -47 294 -201 426 -315 182 -158 231 -195 309 -238 104 -57 104 -56 89 -155 -11 -76 -30 -153 -51 -202 -4 -11 -15 -41 -24 -66 -29 -80 -135 -247 -204 -321 -197 -209 -474 -337 -707 -325 -141 8 -305 27 -360 44 -213 64 -459 272 -584 493 -82 145 -110 211 -129 310 -45 232 -43 256 32 299 28 17 62 37 76 45 14 8 62 31 108 50 46 19 127 66 180 104 53 38 126 87 162 109 118 72 377 211 422 227 23 8 43 15 43 16 0 0 34 -9 75 -21z"/>
 <path d="M1650 9025 l0 -1195 23 -5 c12 -3 254 -46 537 -95 283 -50 603 -106 710 -125 107 -19 238 -41 290 -50 52 -9 103 -18 113 -21 16 -5 17 8 15 207 l-3 213 -40 8 c-22 4 -274 48 -560 98 -286 50 -528 93 -537 96 -17 5 -18 27 -18 280 0 243 2 274 16 274 15 0 287 -47 784 -135 140 -25 261 -45 268 -45 9 0 12 48 12 209 l0 209 -27 6 c-16 3 -131 24 -258 46 -305 52 -677 118 -742 131 l-53 10 0 281 0 280 23 -5 c12 -3 126 -24 252 -46 478 -83 871 -152 893 -158 l22 -5 0 216 c0 119 -3 216 -8 216 -4 0 -264 45 -577 100 -314 55 -687 120 -830 145 -143 25 -270 48 -282 50 l-23 5 0 -1195z"/>
 <path d="M3594 9866 c-2 -6 -1 -544 4 -1196 l7 -1184 40 -8 c189 -35 443 -78 457 -78 17 0 18 55 20 963 l3 964 185 -33 c102 -18 366 -64 587 -103 222 -39 406 -71 410 -71 5 0 7 103 5 228 l-3 229 -267 46 c-147 26 -409 72 -582 102 -173 31 -416 73 -540 95 -124 22 -247 44 -273 49 -35 6 -50 5 -53 -3z"/>
 <path d="M7290 9208 c-311 -44 -517 -255 -553 -564 l-5 -41 247 -42 c135 -24 254 -44 265 -45 13 -1 22 10 31 41 29 97 96 177 180 214 103 47 286 35 404 -26 198 -101 252 -321 110 -449 -76 -68 -163 -97 -354 -116 -513 -52 -723 -184 -781 -490 -90 -473 273 -887 856 -975 478 -73 791 136 864 576 l6 36 -67 12 c-38 6 -156 26 -263 45 -131 23 -197 31 -201 24 -4 -6 -10 -29 -13 -51 -8 -50 -49 -133 -83 -169 -59 -62 -178 -89 -286 -64 -90 21 -155 55 -204 108 -50 55 -68 104 -67 188 2 120 62 193 194 234 89 28 109 31 305 51 83 9 179 23 215 31 335 76 512 288 514 614 0 113 -12 180 -51 275 -82 198 -279 377 -526 479 -230 95 -516 136 -737 104z"/>
 <path d="M8820 7756 l0 -1194 43 -7 c76 -12 72 -5 72 -112 -1 -54 -2 -106 -3 -116 -3 -25 -22 -11 -23 16 -1 20 -2 20 -6 2 -2 -11 -6 -30 -9 -43 -6 -31 -24 -18 -24 19 0 16 -4 29 -10 29 -5 0 -10 -24 -10 -52 0 -29 -5 -60 -10 -68 -7 -10 -10 5 -10 53 0 66 -19 127 -40 127 -6 0 -10 -11 -10 -25 0 -38 -21 -125 -30 -125 -4 0 -11 15 -14 34 -4 19 -20 61 -36 93 l-30 58 0 -65 c0 -82 -11 -102 -39 -76 -26 24 -28 8 -6 -54 17 -48 20 -110 5 -110 -5 0 -10 12 -11 28 -1 25 -2 23 -15 -17 -3 -11 -7 -11 -19 -1 -13 11 -15 6 -15 -38 0 -66 -14 -103 -38 -99 -10 1 -37 18 -60 36 -48 37 -50 35 -22 -19 25 -50 25 -56 -2 -63 -12 -4 -19 -9 -16 -13 4 -3 -4 -28 -17 -55 -16 -31 -25 -65 -25 -97 0 -26 -4 -52 -9 -58 -14 -14 -33 -174 -29 -244 3 -62 0 -68 -20 -48 -17 17 -15 10 14 -63 14 -35 45 -89 68 -119 61 -79 66 -90 77 -193 12 -105 28 -142 99 -228 29 -35 54 -77 60 -102 6 -23 18 -62 25 -86 8 -25 15 -53 15 -63 0 -10 -31 -80 -69 -155 -80 -161 -95 -204 -86 -241 3 -14 57 -96 120 -182 62 -85 141 -207 175 -270 34 -63 119 -200 189 -303 166 -248 156 -228 133 -279 -10 -24 -52 -97 -94 -163 -88 -142 -191 -317 -277 -471 l-61 -111 0 -96 0 -95 47 -41 c78 -70 153 -100 263 -107 52 -4 105 -10 116 -15 l22 -8 -6 -400 -5 -401 62 0 61 0 1 83 c1 45 5 231 8 412 l6 330 234 7 235 8 125 -67 c69 -36 151 -82 181 -101 80 -51 171 -57 183 -12 4 16 -15 41 -83 108 -48 48 -95 103 -105 122 -10 19 -22 70 -26 113 -5 43 -16 92 -25 108 -18 36 -21 35 -145 -23 l-87 -40 -103 17 c-57 9 -140 30 -184 45 -44 15 -104 33 -133 40 -30 7 -56 19 -59 27 -3 8 8 33 25 56 92 123 326 475 406 608 l57 96 162 7 c426 18 585 36 674 76 37 17 106 39 153 49 47 11 138 33 202 49 64 17 217 52 339 77 l223 45 261 0 c295 0 500 -13 554 -36 41 -17 96 -11 124 13 33 31 16 114 -37 171 -32 35 -45 40 -156 57 -72 11 -124 26 -179 51 -129 60 -194 56 -259 -17 -27 -31 -28 -31 -101 -25 -41 4 -116 16 -166 26 -55 11 -161 22 -266 26 l-174 7 -157 -67 -158 -66 -122 0 c-187 0 -345 17 -533 55 -93 19 -197 38 -229 41 -55 7 -64 12 -126 69 -79 72 -114 85 -249 92 -120 6 -145 15 -182 69 -57 84 -69 121 -69 227 0 53 4 97 8 97 18 0 309 -61 342 -71 74 -24 498 -251 569 -305 101 -77 139 -92 287 -109 71 -8 130 -20 132 -25 6 -18 30 -10 36 12 6 25 -49 144 -88 187 -31 35 -89 58 -194 76 -108 18 -139 29 -168 56 -19 18 -20 24 -10 50 9 26 8 36 -10 67 -23 39 -96 102 -120 102 -8 0 -32 -16 -54 -36 -22 -20 -46 -34 -52 -31 -7 2 -68 36 -135 74 -67 39 -148 80 -180 93 -32 13 -127 56 -211 96 l-153 73 8 583 c4 321 8 1280 8 2133 l0 1549 -240 43 c-132 23 -248 42 -257 42 -17 1 -18 -62 -18 -1193z m274 -1242 l108 -17 -4 -256 c-3 -226 -6 -260 -23 -291 -21 -40 -32 -25 -16 22 14 40 14 77 0 118 l-12 32 -26 -48 c-26 -48 -62 -77 -47 -38 4 10 9 48 12 84 l5 65 -25 -30 c-31 -36 -42 -28 -26 20 7 20 10 69 8 108 -3 65 -7 78 -46 136 -41 63 -58 129 -29 118 7 -3 62 -13 121 -23z m86 -1569 c0 -151 -3 -275 -6 -275 -19 0 -128 67 -172 106 -48 42 -52 49 -52 89 0 48 45 124 120 205 24 25 49 59 57 75 31 64 38 75 45 75 5 0 8 -124 8 -275z m964 -741 c8 -21 3 -26 -18 -18 -20 8 -21 34 -2 34 8 0 17 -7 20 -16z"/>
 <path d="M11920 7216 l0 -1196 23 -5 c78 -18 829 -146 834 -142 8 8 41 139 239 945 104 419 191 762 194 762 4 0 28 -100 54 -222 26 -123 69 -324 96 -448 27 -124 94 -441 151 -705 56 -264 103 -481 104 -482 1 -2 105 -21 231 -43 126 -22 317 -56 425 -75 107 -19 201 -35 207 -35 9 0 12 287 12 1195 0 657 -3 1195 -6 1195 -7 0 -451 77 -498 86 l-28 6 5 -918 c6 -919 6 -919 -13 -844 -18 71 -206 862 -362 1525 -38 165 -73 304 -77 308 -5 4 -111 26 -237 48 -126 22 -262 46 -302 53 -53 9 -75 10 -78 2 -5 -13 -73 -280 -289 -1126 -86 -338 -159 -617 -162 -620 -2 -2 -3 408 -2 913 1 505 0 920 -3 922 -2 3 -110 23 -239 45 -129 23 -244 44 -256 47 l-23 5 0 -1196z"/>
 </g>

</svg>