<!DOCTYPE svg PUBLIC "-//W3C//DTD SVG 20010904//EN" "http://www.w3.org/TR/2001/REC-SVG-20010904/DTD/svg10.dtd">
<svg version="1.0" xmlns="http://www.w3.org/2000/svg" width="1600px" height="1600px" viewBox="0 0 16000 16000" preserveAspectRatio="xMidYMid meet">
<g id="layer101" fill="#000000" stroke="none">
 <path d="M6650 14481 c0 -5 18 -62 41 -127 29 -86 67 -249 135 -584 52 -256 97 -478 100 -495 8 -41 53 -232 65 -275 30 -100 145 -606 140 -612 -11 -11 -222 22 -295 46 -59 20 -99 25 -241 30 -150 5 -186 10 -300 40 -110 28 -125 35 -100 41 204 48 260 125 356 490 34 129 63 256 79 345 20 111 6 352 -25 412 -8 17 -15 37 -15 44 0 17 -78 114 -91 114 -7 0 -5 -10 5 -25 9 -13 16 -32 16 -42 0 -11 -12 1 -31 30 -30 45 -58 65 -45 31 5 -12 1 -14 -17 -8 -25 8 -23 6 -59 61 -29 44 -56 68 -45 41 9 -24 -4 -30 -20 -10 -12 16 -15 15 -38 -13 -14 -16 -25 -35 -25 -40 0 -6 -8 -27 -19 -48 -15 -29 -20 -70 -26 -204 -4 -92 -14 -188 -21 -213 -8 -25 -14 -64 -14 -88 0 -67 -30 -174 -56 -203 -13 -14 -24 -32 -24 -41 0 -8 -7 -21 -15 -28 -8 -7 -15 -18 -15 -25 0 -7 -9 -24 -21 -39 -17 -22 -28 -26 -69 -26 -27 0 -52 -4 -55 -10 -3 -5 -11 -10 -17 -10 -7 0 -8 37 -3 123 11 183 11 233 -3 337 -18 133 -33 307 -37 425 -3 89 1 167 22 413 4 48 2 72 -5 72 -19 0 -42 -43 -42 -77 0 -42 -14 -49 -50 -23 -45 32 -90 43 -97 23 -4 -9 1 -21 10 -28 24 -17 21 -25 -8 -25 -39 0 -30 -28 15 -46 45 -18 54 -34 15 -26 -33 6 -34 -22 -2 -43 42 -27 50 -60 27 -112 -23 -52 -25 -85 -8 -112 9 -15 8 -43 -6 -128 -10 -59 -22 -121 -28 -138 -15 -48 -26 -268 -17 -365 5 -54 4 -111 -2 -147 -20 -113 -28 -315 -17 -437 5 -65 7 -128 4 -140 -3 -13 -42 -72 -85 -132 -50 -67 -99 -149 -128 -214 -44 -96 -48 -111 -48 -180 0 -41 8 -111 17 -155 9 -44 24 -127 33 -185 16 -107 44 -241 71 -340 9 -30 26 -104 39 -165 13 -60 29 -128 36 -150 6 -22 14 -80 18 -130 4 -49 14 -111 21 -137 13 -45 11 -63 -39 -337 -59 -325 -66 -384 -57 -435 8 -41 55 -100 97 -122 36 -18 115 -18 169 1 24 8 44 14 45 13 3 -4 -16 -432 -19 -436 -2 -1 -78 11 -169 28 -92 16 -173 30 -182 30 -13 0 -15 -54 -15 -462 l0 -463 -404 -655 c-222 -360 -401 -658 -397 -661 3 -4 127 -28 275 -53 220 -39 271 -45 281 -34 10 12 421 733 485 850 14 26 27 48 30 48 3 0 29 -53 57 -117 29 -65 125 -280 214 -478 88 -198 173 -387 187 -420 14 -33 28 -63 32 -68 5 -6 545 -107 577 -107 6 0 -173 366 -397 813 l-408 812 -2 520 c-1 286 -2 606 -1 712 l1 192 73 36 c39 20 79 43 87 50 8 7 45 31 82 53 l66 41 51 -77 c28 -42 79 -113 115 -156 35 -43 84 -110 107 -148 180 -285 253 -372 404 -484 33 -24 65 -49 72 -54 16 -14 46 -13 61 2 22 22 12 52 -48 147 -80 128 -94 172 -86 278 5 75 4 85 -14 103 -11 11 -31 20 -45 20 -38 0 -102 29 -119 54 -20 31 -100 236 -121 311 -10 33 -26 77 -37 98 l-19 37 26 10 c15 6 30 10 34 10 14 0 243 140 280 171 20 16 42 34 49 40 17 13 15 44 -3 59 -19 16 -84 9 -180 -19 -102 -30 -171 -27 -257 9 -38 16 -78 30 -87 30 -21 0 -52 -34 -69 -73 -10 -24 -15 -26 -32 -17 -25 13 -58 66 -89 140 -13 30 -39 82 -58 115 -32 55 -34 63 -23 90 6 17 17 45 23 63 7 21 36 56 75 90 114 100 315 317 474 512 102 124 175 225 403 550 65 95 133 181 149 193 l29 20 -6 181 c-15 417 -20 455 -148 1156 -21 118 -55 289 -73 380 -19 91 -50 240 -68 332 l-33 168 -192 0 c-106 0 -193 -4 -193 -9z m-355 -533 c16 -41 8 -52 -13 -18 -7 12 -18 18 -24 14 -8 -5 -9 -1 -5 10 4 10 7 25 7 34 0 23 16 4 35 -40z m53 40 c7 -7 12 -21 12 -33 0 -12 5 -26 11 -32 8 -8 8 -16 0 -30 -10 -17 -10 -17 -11 2 0 11 -6 29 -14 40 -30 45 -29 84 2 53z m-48 -148 c-15 -28 -24 -19 -16 16 5 19 10 24 17 17 8 -8 7 -18 -1 -33z m384 -1586 c48 -17 159 -16 343 2 51 5 64 4 69 -9 8 -22 0 -34 -101 -139 -50 -51 -112 -122 -140 -158 -27 -36 -122 -155 -210 -265 -148 -183 -297 -391 -339 -472 -22 -43 -32 -42 -40 6 -10 63 -86 243 -121 286 -64 80 -68 95 -63 240 6 150 22 198 107 338 28 45 56 97 62 115 11 32 14 34 48 29 20 -2 65 2 101 10 36 9 99 19 140 23 41 4 80 8 86 9 6 0 32 -6 58 -15z m-645 -1898 c9 -11 7 -15 -11 -19 -27 -7 -32 -3 -25 18 8 19 21 19 36 1z"/>
 <path d="M10674 13935 c7 -38 -1 -59 -58 -144 -31 -46 -36 -61 -36 -113 0 -51 -3 -61 -20 -65 -17 -4 -20 -14 -20 -56 l0 -51 -20 22 c-26 28 -28 28 -42 -5 -11 -28 -11 -28 -21 20 -19 95 -27 59 -63 -268 -16 -153 -15 -249 8 -439 10 -92 36 -160 91 -241 33 -48 33 -56 4 -103 -32 -50 -47 -97 -47 -145 0 -33 7 -46 45 -84 50 -48 59 -89 29 -131 -19 -27 -35 -28 -104 -1 -49 19 -65 20 -145 13 -110 -10 -155 -9 -457 3 -168 7 -242 14 -253 23 -9 7 -32 42 -51 77 -38 67 -54 73 -54 19 0 -42 -22 -96 -50 -121 -21 -19 -22 -19 -81 1 l-59 21 0 -23 c0 -18 17 -35 73 -73 72 -48 111 -94 141 -165 10 -25 21 -36 35 -36 17 0 21 6 21 33 -1 17 -7 43 -14 56 -11 20 -11 28 3 52 19 34 24 33 164 -23 106 -42 176 -57 392 -83 77 -9 150 -18 162 -21 38 -8 74 -95 93 -229 8 -54 19 -82 47 -123 30 -44 42 -77 64 -180 32 -146 33 -144 -55 -188 -99 -50 -185 -115 -278 -212 -132 -138 -201 -248 -268 -427 -25 -68 -27 -71 -91 -106 -108 -59 -263 -177 -400 -305 -50 -46 -101 -91 -112 -98 -12 -8 -71 -21 -132 -30 -148 -23 -194 -34 -232 -57 -42 -26 -73 -78 -73 -122 0 -51 21 -67 88 -67 47 0 72 7 132 38 112 57 177 81 199 75 36 -9 68 6 134 61 52 45 88 64 198 107 74 28 150 52 169 53 l35 1 12 -105 c15 -138 26 -189 63 -296 35 -102 90 -213 148 -299 57 -86 213 -233 312 -297 104 -66 120 -73 245 -118 l99 -35 16 -45 c11 -31 15 -70 12 -123 l-4 -78 -66 7 c-128 15 -320 8 -416 -15 -195 -47 -346 -161 -425 -322 -44 -90 -65 -173 -81 -321 -13 -124 -13 -1618 0 -1618 5 0 112 -18 237 -39 125 -22 239 -41 253 -43 l25 -3 0 815 c0 748 2 820 18 880 34 124 110 207 226 245 43 14 75 16 165 12 169 -7 299 -58 383 -150 48 -52 84 -119 109 -203 17 -54 18 -128 21 -911 l4 -853 22 -5 c35 -8 487 -85 498 -85 15 0 6 1649 -10 1752 -33 220 -108 390 -226 516 -133 142 -300 234 -535 296 l-85 23 -3 105 c-2 81 1 108 11 117 8 6 68 16 133 21 155 12 212 23 310 59 177 64 288 134 420 265 170 169 280 377 335 634 6 28 15 52 21 52 6 0 47 -22 92 -49 44 -26 117 -67 161 -90 105 -56 199 -132 257 -210 33 -44 82 -89 155 -143 130 -96 172 -119 225 -121 48 -2 68 19 68 72 0 93 -51 162 -146 196 -166 59 -185 72 -245 162 -25 37 -81 122 -124 188 -93 140 -212 268 -304 327 -121 76 -139 90 -146 106 -4 10 -17 51 -30 92 -33 108 -50 151 -96 243 -59 117 -113 189 -222 294 -115 112 -206 172 -341 227 -101 41 -101 41 -128 96 -54 109 -58 301 -9 495 l17 70 140 0 c76 0 193 -7 259 -15 131 -16 384 -19 595 -6 l135 8 61 -68 c33 -38 69 -84 80 -102 13 -23 25 -32 39 -30 16 2 21 12 23 51 3 48 22 68 22 23 0 -37 10 -56 30 -56 21 0 30 19 30 63 0 54 10 61 83 54 50 -5 68 -3 77 8 22 26 3 41 -81 64 -46 13 -103 35 -127 51 -31 21 -73 34 -160 50 -64 12 -184 35 -266 51 -82 16 -179 29 -215 29 -92 0 -258 25 -371 55 -115 31 -303 47 -455 38 -93 -5 -112 -3 -123 10 -26 31 4 86 104 196 93 101 151 196 168 276 4 17 17 50 29 75 30 64 36 302 12 530 -17 162 -20 178 -45 231 -10 21 -10 35 0 64 10 32 10 38 -6 49 -13 10 -16 22 -11 52 3 21 2 48 -2 59 -7 16 -10 11 -15 -25 -18 -121 -46 -177 -81 -163 -24 9 -20 118 5 159 12 19 17 35 11 38 -6 4 -15 -3 -21 -14 -16 -30 -34 -25 -62 18 -42 61 -46 73 -40 116 5 42 -2 43 -22 4 -20 -39 -36 -33 -37 14 0 24 -3 36 -6 28 -3 -8 -9 -17 -12 -20 -3 -3 -17 -26 -31 -52 -13 -27 -30 -48 -37 -48 -6 0 -15 20 -19 45 -4 28 -11 45 -20 45 -8 0 -14 -6 -14 -14 0 -24 -57 -47 -85 -34 -21 10 -23 15 -18 64 4 40 1 65 -12 94 -22 50 -40 52 -31 5z m-349 -2958 c-24 -35 -77 -101 -116 -147 -39 -45 -99 -122 -133 -169 -86 -122 -127 -171 -143 -171 -7 0 -13 2 -13 5 0 3 30 64 67 136 59 116 79 144 162 232 95 99 185 175 208 176 7 1 -8 -28 -32 -62z m1318 -104 c12 -16 43 -54 68 -84 79 -94 200 -322 181 -341 -18 -18 -162 173 -222 293 -23 46 -57 105 -75 130 -18 25 -38 56 -45 69 -12 22 -10 21 29 -7 24 -17 52 -44 64 -60z m-683 -204 c41 -11 103 -36 137 -54 86 -47 294 -201 426 -315 182 -158 231 -195 309 -238 104 -57 104 -56 89 -155 -11 -76 -30 -153 -51 -202 -4 -11 -15 -41 -24 -66 -29 -80 -135 -247 -204 -321 -197 -209 -474 -337 -707 -325 -141 8 -305 27 -360 44 -213 64 -459 272 -584 493 -82 145 -110 211 -129 310 -45 232 -43 256 32 299 28 17 62 37 76 45 14 8 62 31 108 50 46 19 127 66 180 104 53 38 126 87 162 109 118 72 377 211 422 227 23 8 43 15 43 16 0 0 34 -9 75 -21z"/>
 <path d="M1650 9025 l0 -1195 23 -5 c12 -3 254 -46 537 -95 283 -50 603 -106 710 -125 107 -19 238 -41 290 -50 52 -9 103 -18 113 -21 16 -5 17 8 15 207 l-3 213 -40 8 c-22 4 -274 48 -560 98 -286 50 -528 93 -537 96 -17 5 -18 27 -18 280 0 243 2 274 16 274 15 0 287 -47 784 -135 140 -25 261 -45 268 -45 9 0 12 48 12 209 l0 209 -27 6 c-16 3 -131 24 -258 46 -305 52 -677 118 -742 131 l-53 10 0 281 0 280 23 -5 c12 -3 126 -24 252 -46 478 -83 871 -152 893 -158 l22 -5 0 216 c0 119 -3 216 -8 216 -4 0 -264 45 -577 100 -314 55 -687 120 -830 145 -143 25 -270 48 -282 50 l-23 5 0 -1195z"/>
 <path d="M3594 9866 c-2 -6 -1 -544 4 -1196 l7 -1184 40 -8 c189 -35 443 -78 457 -78 17 0 18 55 20 963 l3 964 185 -33 c102 -18 366 -64 587 -103 222 -39 406 -71 410 -71 5 0 7 103 5 228 l-3 229 -267 46 c-147 26 -409 72 -582 102 -173 31 -416 73 -540 95 -124 22 -247 44 -273 49 -35 6 -50 5 -53 -3z"/>
 <path d="M7290 9208 c-311 -44 -517 -255 -553 -564 l-5 -41 247 -42 c135 -24 254 -44 265 -45 13 -1 22 10 31 41 29 97 96 177 180 214 103 47 286 35 404 -26 198 -101 252 -321 110 -449 -76 -68 -163 -97 -354 -116 -513 -52 -723 -184 -781 -490 -90 -473 273 -887 856 -975 478 -73 791 136 864 576 l6 36 -67 12 c-38 6 -156 26 -263 45 -131 23 -197 31 -201 24 -4 -6 -10 -29 -13 -51 -8 -50 -49 -133 -83 -169 -59 -62 -178 -89 -286 -64 -90 21 -155 55 -204 108 -50 55 -68 104 -67 188 2 120 62 193 194 234 89 28 109 31 305 51 83 9 179 23 215 31 335 76 512 288 514 614 0 113 -12 180 -51 275 -82 198 -279 377 -526 479 -230 95 -516 136 -737 104z"/>
 <path d="M8820 7756 l0 -1194 43 -7 c76 -12 72 -5 72 -112 -1 -54 -2 -106 -3 -116 -3 -25 -22 -11 -23 16 -1 20 -2 20 -6 2 -2 -11 -6 -30 -9 -43 -6 -31 -24 -18 -24 19 0 16 -4 29 -10 29 -5 0 -10 -24 -10 -52 0 -29 -5 -60 -10 -68 -7 -10 -10 5 -10 53 0 66 -19 127 -40 127 -6 0 -10 -11 -10 -25 0 -38 -21 -125 -30 -125 -4 0 -11 15 -14 34 -4 19 -20 61 -36 93 l-30 58 0 -65 c0 -82 -11 -102 -39 -76 -26 24 -28 8 -6 -54 17 -48 20 -110 5 -110 -5 0 -10 12 -11 28 -1 25 -2 23 -15 -17 -3 -11 -7 -11 -19 -1 -13 11 -15 6 -15 -38 0 -66 -14 -103 -38 -99 -10 1 -37 18 -60 36 -48 37 -50 35 -22 -19 25 -50 25 -56 -2 -63 -12 -4 -19 -9 -16 -13 4 -3 -4 -28 -17 -55 -16 -31 -25 -65 -25 -97 0 -26 -4 -52 -9 -58 -14 -14 -33 -174 -29 -244 3 -62 0 -68 -20 -48 -17 17 -15 10 14 -63 14 -35 45 -89 68 -119 61 -79 66 -90 77 -193 12 -105 28 -142 99 -228 29 -35 54 -77 60 -102 6 -23 18 -62 25 -86 8 -25 15 -53 15 -63 0 -10 -31 -80 -69 -155 -80 -161 -95 -204 -86 -241 3 -14 57 -96 120 -182 62 -85 141 -207 175 -270 34 -63 119 -200 189 -303 166 -248 156 -228 133 -279 -10 -24 -52 -97 -94 -163 -88 -142 -191 -317 -277 -471 l-61 -111 0 -96 0 -95 47 -41 c78 -70 153 -100 263 -107 52 -4 105 -10 116 -15 l22 -8 -6 -400 -5 -401 62 0 61 0 1 83 c1 45 5 231 8 412 l6 330 234 7 235 8 125 -67 c69 -36 151 -82 181 -101 80 -51 171 -57 183 -12 4 16 -15 41 -83 108 -48 48 -95 103 -105 122 -10 19 -22 70 -26 113 -5 43 -16 92 -25 108 -18 36 -21 35 -145 -23 l-87 -40 -103 17 c-57 9 -140 30 -184 45 -44 15 -104 33 -133 40 -30 7 -56 19 -59 27 -3 8 8 33 25 56 92 123 326 475 406 608 l57 96 162 7 c426 18 585 36 674 76 37 17 106 39 153 49 47 11 138 33 202 49 64 17 217 52 339 77 l223 45 261 0 c295 0 500 -13 554 -36 41 -17 96 -11 124 13 33 31 16 114 -37 171 -32 35 -45 40 -156 57 -72 11 -124 26 -179 51 -129 60 -194 56 -259 -17 -27 -31 -28 -31 -101 -25 -41 4 -116 16 -166 26 -55 11 -161 22 -266 26 l-174 7 -157 -67 -158 -66 -122 0 c-187 0 -345 17 -533 55 -93 19 -197 38 -229 41 -55 7 -64 12 -126 69 -79 72 -114 85 -249 92 -120 6 -145 15 -182 69 -57 84 -69 121 -69 227 0 53 4 97 8 97 18 0 309 -61 342 -71 74 -24 498 -251 569 -305 101 -77 139 -92 287 -109 71 -8 130 -20 132 -25 6 -18 30 -10 36 12 6 25 -49 144 -88 187 -31 35 -89 58 -194 76 -108 18 -139 29 -168 56 -19 18 -20 24 -10 50 9 26 8 36 -10 67 -23 39 -96 102 -120 102 -8 0 -32 -16 -54 -36 -22 -20 -46 -34 -52 -31 -7 2 -68 36 -135 74 -67 39 -148 80 -180 93 -32 13 -127 56 -211 96 l-153 73 8 583 c4 321 8 1280 8 2133 l0 1549 -240 43 c-132 23 -248 42 -257 42 -17 1 -18 -62 -18 -1193z m274 -1242 l108 -17 -4 -256 c-3 -226 -6 -260 -23 -291 -21 -40 -32 -25 -16 22 14 40 14 77 0 118 l-12 32 -26 -48 c-26 -48 -62 -77 -47 -38 4 10 9 48 12 84 l5 65 -25 -30 c-31 -36 -42 -28 -26 20 7 20 10 69 8 108 -3 65 -7 78 -46 136 -41 63 -58 129 -29 118 7 -3 62 -13 121 -23z m86 -1569 c0 -151 -3 -275 -6 -275 -19 0 -128 67 -172 106 -48 42 -52 49 -52 89 0 48 45 124 120 205 24 25 49 59 57 75 31 64 38 75 45 75 5 0 8 -124 8 -275z m964 -741 c8 -21 3 -26 -18 -18 -20 8 -21 34 -2 34 8 0 17 -7 20 -16z"/>
 <path d="M11920 7216 l0 -1196 23 -5 c78 -18 829 -146 834 -142 8 8 41 139 239 945 104 419 191 762 194 762 4 0 28 -100 54 -222 26 -123 69 -324 96 -448 27 -124 94 -441 151 -705 56 -264 103 -481 104 -482 1 -2 105 -21 231 -43 126 -22 317 -56 425 -75 107 -19 201 -35 207 -35 9 0 12 287 12 1195 0 657 -3 1195 -6 1195 -7 0 -451 77 -498 86 l-28 6 5 -918 c6 -919 6 -919 -13 -844 -18 71 -206 862 -362 1525 -38 165 -73 304 -77 308 -5 4 -111 26 -237 48 -126 22 -262 46 -302 53 -53 9 -75 10 -78 2 -5 -13 -73 -280 -289 -1126 -86 -338 -159 -617 -162 -620 -2 -2 -3 408 -2 913 1 505 0 920 -3 922 -2 3 -110 23 -239 45 -129 23 -244 44 -256 47 l-23 5 0 -1196z"/>
 </g>
<g id="layer102" fill="#ffffff" stroke="none">
 <path d="M0 8000 l0 -8000 8000 0 8000 0 0 8000 0 8000 -8000 0 -8000 0 0 -8000z m7068 6322 c18 -92 49 -241 68 -332 18 -91 52 -262 73 -380 128 -701 133 -739 148 -1156 l6 -181 -29 -20 c-16 -12 -84 -98 -149 -193 -228 -325 -301 -426 -403 -550 -159 -195 -360 -412 -474 -512 -39 -34 -68 -69 -75 -90 -6 -18 -17 -46 -23 -63 -11 -27 -9 -35 23 -90 19 -33 45 -85 58 -115 31 -74 64 -127 89 -140 17 -9 22 -7 32 17 17 39 48 73 69 73 9 0 49 -14 87 -30 86 -36 155 -39 257 -9 96 28 161 35 180 19 18 -15 20 -46 3 -59 -7 -6 -29 -24 -49 -40 -37 -31 -266 -171 -280 -171 -4 0 -19 -4 -34 -10 l-26 -10 19 -37 c11 -21 27 -65 37 -98 21 -75 101 -280 121 -311 17 -25 81 -54 119 -54 14 0 34 -9 45 -20 18 -18 19 -28 14 -103 -8 -106 6 -150 86 -278 60 -95 70 -125 48 -147 -15 -15 -45 -16 -61 -2 -7 5 -39 30 -72 54 -151 112 -224 199 -404 484 -23 38 -72 105 -107 148 -36 43 -87 114 -115 156 l-51 77 -66 -41 c-37 -22 -74 -46 -82 -53 -8 -7 -48 -30 -87 -50 l-73 -36 -1 -192 c-1 -106 0 -426 1 -712 l2 -520 408 -812 c224 -447 403 -813 397 -813 -32 0 -572 101 -577 107 -4 5 -18 35 -32 68 -14 33 -99 222 -187 420 -89 198 -185 413 -214 478 -28 64 -54 117 -57 117 -3 0 -16 -22 -30 -48 -64 -117 -475 -838 -485 -850 -10 -11 -61 -5 -281 34 -148 25 -272 49 -275 53 -4 3 175 301 397 661 l404 655 0 463 c0 408 2 462 15 462 9 0 90 -14 182 -30 91 -17 167 -29 169 -28 3 4 22 432 19 436 -1 1 -21 -5 -45 -13 -54 -19 -133 -19 -169 -1 -42 22 -89 81 -97 122 -9 51 -2 110 57 435 50 274 52 292 39 337 -7 26 -17 88 -21 137 -4 50 -12 108 -18 130 -7 22 -23 90 -36 150 -13 61 -30 135 -39 165 -27 99 -55 233 -71 340 -9 58 -24 141 -33 185 -9 44 -17 114 -17 155 0 69 4 84 48 180 29 65 78 147 128 214 43 60 82 119 85 132 3 12 1 75 -4 140 -11 122 -3 324 17 437 6 36 7 93 2 147 -9 97 2 317 17 365 6 17 18 79 28 138 14 85 15 113 6 128 -17 27 -15 60 8 112 23 52 15 85 -27 112 -32 21 -31 49 2 43 39 -8 30 8 -15 26 -45 18 -54 46 -15 46 29 0 32 8 8 25 -9 7 -14 19 -10 28 7 20 52 9 97 -23 36 -26 50 -19 50 23 0 34 23 77 42 77 7 0 9 -24 5 -72 -21 -246 -25 -324 -22 -413 4 -118 19 -292 37 -425 14 -104 14 -154 3 -337 -5 -86 -4 -123 3 -123 6 0 14 5 17 10 3 6 28 10 55 10 41 0 52 4 69 26 12 15 21 32 21 39 0 7 7 18 15 25 8 7 15 20 15 28 0 9 11 27 24 41 26 29 56 136 56 203 0 24 6 63 14 88 7 25 17 121 21 213 6 134 11 175 26 204 11 21 19 42 19 48 0 5 11 24 25 40 23 28 26 29 38 13 16 -20 29 -14 20 10 -11 27 16 3 45 -41 36 -55 34 -53 59 -61 18 -6 22 -4 17 8 -13 34 15 14 45 -31 19 -29 31 -41 31 -30 0 10 -7 29 -16 42 -10 15 -12 25 -5 25 13 0 91 -97 91 -114 0 -7 7 -27 15 -44 31 -60 45 -301 25 -412 -27 -151 -93 -412 -137 -544 -31 -93 -84 -182 -133 -223 -32 -27 -85 -49 -165 -68 -25 -6 -10 -13 100 -41 114 -30 150 -35 300 -40 142 -5 182 -10 241 -30 73 -24 284 -57 295 -46 5 6 -110 512 -140 612 -12 43 -57 234 -65 275 -3 17 -48 239 -100 495 -68 335 -106 498 -135 584 -23 65 -41 122 -41 127 0 5 87 9 193 9 l192 0 33 -168z m3637 -392 c13 -29 16 -54 12 -94 -5 -49 -3 -54 18 -64 28 -13 85 10 85 34 0 8 6 14 14 14 9 0 16 -17 20 -45 4 -25 13 -45 19 -45 7 0 24 21 37 48 14 26 28 49 31 52 3 3 9 12 12 20 3 8 6 -4 6 -28 1 -47 17 -53 37 -14 20 39 27 38 22 -4 -6 -43 -2 -55 40 -116 28 -43 46 -48 62 -18 6 11 15 18 21 14 6 -3 1 -19 -11 -38 -25 -41 -29 -150 -5 -159 35 -14 63 42 81 163 5 36 8 41 15 25 4 -11 5 -38 2 -59 -5 -30 -2 -42 11 -52 16 -11 16 -17 6 -49 -10 -29 -10 -43 0 -64 25 -53 28 -69 45 -231 24 -228 18 -466 -12 -530 -12 -25 -25 -58 -29 -75 -17 -80 -75 -175 -168 -276 -100 -110 -130 -165 -104 -196 11 -13 30 -15 123 -10 152 9 340 -7 455 -38 113 -30 279 -55 371 -55 36 0 133 -13 215 -29 82 -16 202 -39 266 -51 87 -16 129 -29 160 -50 24 -16 81 -38 127 -51 84 -23 103 -38 81 -64 -9 -11 -27 -13 -77 -8 -73 7 -83 0 -83 -54 0 -44 -9 -63 -30 -63 -20 0 -30 19 -30 56 0 45 -19 25 -22 -23 -2 -39 -7 -49 -23 -51 -14 -2 -26 7 -39 30 -11 18 -47 64 -80 102 l-61 68 -135 -8 c-211 -13 -464 -10 -595 6 -66 8 -183 15 -259 15 l-140 0 -17 -70 c-49 -194 -45 -386 9 -495 27 -55 27 -55 128 -96 135 -55 226 -115 341 -227 161 -156 243 -294 318 -537 13 -41 26 -82 30 -92 7 -16 25 -30 146 -106 92 -59 211 -187 304 -327 203 -309 173 -280 369 -350 95 -34 146 -103 146 -196 0 -53 -20 -74 -68 -72 -53 2 -95 25 -225 121 -73 54 -122 99 -155 143 -58 78 -152 154 -257 210 -44 23 -117 64 -161 90 -45 27 -86 49 -92 49 -6 0 -15 -24 -21 -52 -55 -257 -165 -465 -335 -634 -132 -131 -243 -201 -420 -265 -98 -36 -155 -47 -310 -59 -65 -5 -125 -15 -133 -21 -10 -9 -13 -36 -11 -117 l3 -105 85 -23 c458 -121 695 -374 761 -812 16 -103 25 -1752 10 -1752 -11 0 -463 77 -498 85 l-22 5 -4 853 c-3 783 -4 857 -21 911 -68 229 -226 341 -492 353 -90 4 -122 2 -165 -12 -116 -38 -192 -121 -226 -245 -16 -60 -18 -132 -18 -880 l0 -815 -25 3 c-14 2 -128 21 -253 43 -125 21 -232 39 -237 39 -13 0 -13 1494 0 1618 16 148 37 231 81 321 79 161 230 275 425 322 96 23 288 30 416 15 l66 -7 4 78 c3 53 -1 92 -12 123 l-16 45 -99 35 c-125 45 -141 52 -245 118 -99 64 -255 211 -312 297 -58 86 -113 197 -148 299 -37 107 -48 158 -63 296 l-12 105 -35 -1 c-19 -1 -95 -25 -169 -53 -110 -43 -146 -62 -198 -107 -66 -55 -98 -70 -134 -61 -22 6 -87 -18 -199 -75 -60 -31 -85 -38 -132 -38 -67 0 -88 16 -88 67 0 44 31 96 73 122 38 23 84 34 232 57 61 9 120 22 132 30 11 7 62 52 112 98 137 128 292 246 400 305 64 35 66 38 91 106 67 179 136 289 268 427 93 97 179 162 278 212 88 44 87 42 55 188 -22 103 -34 136 -64 180 -28 41 -39 69 -47 123 -19 134 -55 221 -93 229 -12 3 -85 12 -162 21 -216 26 -286 41 -392 83 -140 56 -145 57 -164 23 -14 -24 -14 -32 -3 -52 7 -13 13 -39 14 -56 0 -27 -4 -33 -21 -33 -14 0 -25 11 -35 36 -30 71 -69 117 -141 165 -56 38 -73 55 -73 73 l0 23 59 -21 c59 -20 60 -20 81 -1 28 25 50 79 50 121 0 54 16 48 54 -19 19 -35 42 -70 51 -77 11 -9 85 -16 253 -23 302 -12 347 -13 457 -3 80 7 96 6 145 -13 69 -27 85 -26 104 1 30 42 21 83 -29 131 -38 38 -45 51 -45 84 0 48 15 95 47 145 29 47 29 55 -4 103 -75 111 -92 177 -108 430 -8 122 35 565 55 565 4 0 12 -21 17 -47 10 -48 10 -48 21 -20 14 33 16 33 42 5 l20 -22 0 51 c0 42 3 52 20 56 17 4 20 14 20 65 0 52 5 67 36 113 57 85 65 106 58 144 -9 47 9 45 31 -5z m-8750 -3765 c143 -25 516 -90 830 -145 313 -55 573 -100 577 -100 5 0 8 -97 8 -216 l0 -216 -22 5 c-22 6 -415 75 -893 158 -126 22 -240 43 -252 46 l-23 5 0 -280 0 -281 53 -10 c65 -13 437 -79 742 -131 127 -22 242 -43 258 -46 l27 -6 0 -209 c0 -161 -3 -209 -12 -209 -7 0 -128 20 -268 45 -497 88 -769 135 -784 135 -14 0 -16 -31 -16 -274 0 -253 1 -275 18 -280 9 -3 251 -46 537 -96 286 -50 538 -94 560 -98 l40 -8 3 -213 c2 -199 1 -212 -15 -207 -10 3 -61 12 -113 21 -52 9 -183 31 -290 50 -107 19 -427 75 -710 125 -283 49 -525 92 -537 95 l-23 5 0 1195 0 1195 23 -5 c12 -2 139 -25 282 -50z m1965 -345 c124 -22 367 -64 540 -95 173 -30 435 -76 582 -102 l267 -46 3 -229 c2 -125 0 -228 -5 -228 -4 0 -188 32 -410 71 -221 39 -485 85 -587 103 l-185 33 -3 -964 c-2 -908 -3 -963 -20 -963 -14 0 -268 43 -457 78 l-40 8 -7 1184 c-5 652 -6 1190 -4 1196 3 8 18 9 53 3 26 -5 149 -27 273 -49z m3735 -615 c497 -75 848 -336 936 -695 19 -77 16 -250 -5 -330 -61 -236 -225 -382 -496 -444 -36 -8 -132 -22 -215 -31 -196 -20 -216 -23 -305 -51 -132 -41 -192 -114 -194 -234 -1 -84 17 -133 67 -188 49 -53 114 -87 204 -108 108 -25 227 2 286 64 34 36 75 119 83 169 3 22 9 45 13 51 4 7 70 -1 201 -24 107 -19 225 -39 263 -45 l67 -12 -6 -36 c-73 -440 -386 -649 -864 -576 -583 88 -946 502 -856 975 58 306 268 438 781 490 191 19 278 48 354 116 142 128 88 348 -110 449 -118 61 -301 73 -404 26 -84 -37 -151 -117 -180 -214 -9 -31 -18 -42 -31 -41 -11 1 -130 21 -265 45 l-247 42 5 41 c23 202 128 377 280 469 155 94 393 129 638 92z m1440 -298 l240 -43 0 -1549 c0 -853 -4 -1812 -8 -2133 l-8 -583 153 -73 c84 -40 179 -83 211 -96 32 -13 113 -54 180 -93 67 -38 128 -72 135 -74 6 -3 30 11 52 31 22 20 46 36 54 36 24 0 97 -63 120 -102 18 -31 19 -41 10 -67 -10 -26 -9 -32 10 -50 29 -27 60 -38 168 -56 105 -18 163 -41 194 -76 39 -43 94 -162 88 -187 -6 -22 -30 -30 -36 -12 -2 5 -61 17 -132 25 -148 17 -186 32 -287 109 -71 54 -495 281 -569 305 -33 10 -324 71 -342 71 -4 0 -8 -44 -8 -97 0 -106 12 -143 69 -227 37 -54 62 -63 182 -69 135 -7 170 -20 249 -92 62 -57 71 -62 126 -69 32 -3 136 -22 229 -41 188 -38 346 -55 533 -55 l122 0 158 66 157 67 174 -7 c105 -4 211 -15 266 -26 50 -10 125 -22 166 -26 73 -6 74 -6 101 25 65 73 130 77 259 17 55 -25 107 -40 179 -51 111 -17 124 -22 156 -57 53 -57 70 -140 37 -171 -28 -24 -83 -30 -124 -13 -54 23 -259 36 -554 36 l-261 0 -223 -45 c-122 -25 -275 -60 -339 -77 -64 -16 -155 -38 -202 -49 -47 -10 -116 -32 -153 -49 -89 -40 -248 -58 -674 -76 l-162 -7 -57 -96 c-80 -133 -314 -485 -406 -608 -17 -23 -28 -48 -25 -56 3 -8 29 -20 59 -27 29 -7 89 -25 133 -40 44 -15 127 -36 184 -45 l103 -17 87 40 c124 58 127 59 145 23 9 -16 20 -65 25 -108 4 -43 16 -94 26 -113 10 -19 57 -74 105 -122 68 -67 87 -92 83 -108 -12 -45 -103 -39 -183 12 -30 19 -112 65 -181 101 l-125 67 -235 -8 -234 -7 -6 -330 c-3 -181 -7 -367 -8 -412 l-1 -83 -61 0 -62 0 5 401 6 400 -22 8 c-11 5 -64 11 -116 15 -110 7 -185 37 -263 107 l-47 41 0 95 0 96 61 111 c86 154 189 329 277 471 42 66 84 139 94 163 23 51 33 31 -133 279 -70 103 -155 240 -189 303 -34 63 -113 185 -175 270 -63 86 -117 168 -120 182 -9 37 6 80 86 241 38 75 69 145 69 155 0 10 -7 38 -15 63 -7 24 -19 63 -25 86 -6 25 -31 67 -60 102 -71 86 -87 123 -99 228 -11 103 -16 114 -77 193 -23 30 -54 84 -68 119 -29 73 -31 80 -14 63 20 -20 23 -14 20 48 -4 70 15 230 29 244 5 6 9 32 9 58 0 32 9 66 25 97 13 27 21 52 17 55 -3 4 4 9 16 13 27 7 27 13 2 63 -28 54 -26 56 22 19 23 -18 50 -35 60 -36 24 -4 38 33 38 99 0 44 2 49 15 38 12 -10 16 -10 19 1 13 40 14 42 15 17 1 -16 6 -28 11 -28 15 0 12 62 -5 110 -22 62 -20 78 6 54 28 -26 39 -6 39 76 l0 65 30 -58 c16 -32 32 -74 36 -93 3 -19 10 -34 14 -34 9 0 30 87 30 125 0 14 4 25 10 25 21 0 40 -61 40 -127 0 -48 3 -63 10 -53 5 8 10 39 10 68 0 28 5 52 10 52 6 0 10 -13 10 -29 0 -37 18 -50 24 -19 3 13 7 32 9 43 4 18 5 18 6 -2 1 -27 20 -41 23 -16 1 10 2 62 3 116 0 107 4 100 -72 112 l-43 7 0 1194 c0 1131 1 1194 18 1193 9 0 125 -19 257 -42z m3104 -547 c129 -22 237 -42 239 -45 3 -2 4 -417 3 -922 -1 -505 0 -915 2 -913 3 3 76 282 162 620 216 846 284 1113 289 1126 3 8 25 7 78 -2 40 -7 176 -31 302 -53 126 -22 232 -44 237 -48 4 -4 39 -143 77 -308 156 -663 344 -1454 362 -1525 19 -75 19 -75 13 844 l-5 918 28 -6 c47 -9 491 -86 498 -86 3 0 6 -538 6 -1195 0 -908 -3 -1195 -12 -1195 -6 0 -100 16 -207 35 -108 19 -299 53 -425 75 -126 22 -230 41 -231 43 -1 1 -48 218 -104 482 -57 264 -124 581 -151 705 -27 124 -70 325 -96 448 -26 122 -50 222 -54 222 -3 0 -90 -343 -194 -762 -198 -806 -231 -937 -239 -945 -5 -4 -756 124 -834 142 l-23 5 0 1196 0 1196 23 -5 c12 -3 127 -24 256 -47z"/>
 <path d="M6260 13988 c0 -9 -3 -24 -7 -34 -4 -11 -3 -15 5 -10 6 4 17 -2 24 -14 21 -34 29 -23 13 18 -19 44 -35 63 -35 40z"/>
 <path d="M6326 13978 c4 -13 13 -32 20 -43 8 -11 14 -29 14 -40 1 -19 1 -19 11 -2 8 14 8 22 0 30 -6 6 -11 20 -11 32 0 21 -17 45 -33 45 -4 0 -5 -10 -1 -22z"/>
 <path d="M6284 13856 c-8 -35 1 -44 16 -16 8 15 9 25 1 33 -7 7 -12 2 -17 -17z"/>
 <path d="M6540 12260 c-41 -4 -104 -14 -140 -23 -36 -8 -81 -12 -101 -10 -34 5 -37 3 -48 -29 -6 -18 -34 -70 -62 -115 -85 -140 -101 -188 -107 -338 -5 -145 -1 -160 63 -240 35 -43 111 -223 121 -286 8 -48 18 -49 40 -6 42 81 191 289 339 472 88 110 183 229 210 265 28 36 90 107 140 158 101 105 109 117 101 139 -5 13 -18 14 -69 9 -184 -18 -295 -19 -343 -2 -26 9 -52 15 -58 15 -6 -1 -45 -5 -86 -9z"/>
 <path d="M6003 10355 c-7 -21 -2 -25 25 -18 18 4 20 8 11 19 -15 18 -28 18 -36 -1z"/>
 <path d="M10295 11001 c-28 -21 -93 -83 -146 -138 -83 -88 -103 -116 -162 -232 -37 -72 -67 -133 -67 -136 0 -3 6 -5 13 -5 16 0 57 49 143 171 34 47 94 124 133 169 88 102 165 210 148 209 -7 0 -35 -17 -62 -38z"/>
 <path d="M11550 10940 c7 -13 27 -44 45 -69 18 -25 52 -84 75 -130 60 -120 204 -311 222 -293 19 19 -102 247 -181 341 -25 30 -56 68 -68 84 -12 16 -40 43 -64 60 -39 28 -41 29 -29 7z"/>
 <path d="M10842 10674 c-45 -16 -304 -155 -422 -227 -36 -22 -109 -71 -162 -109 -53 -38 -134 -85 -180 -104 -46 -19 -94 -42 -108 -50 -14 -8 -48 -28 -76 -45 -75 -43 -77 -67 -32 -299 19 -99 47 -165 129 -310 71 -126 209 -278 329 -362 77 -55 186 -110 255 -131 55 -17 219 -36 360 -44 233 -12 510 116 707 325 69 74 175 241 204 321 9 25 20 55 24 66 21 49 40 126 51 202 15 99 15 98 -89 155 -78 43 -127 80 -309 238 -132 114 -340 268 -426 315 -34 18 -96 43 -137 54 -41 12 -75 21 -75 21 0 -1 -20 -8 -43 -16z"/>
 <path d="M8960 6512 c0 -18 16 -54 42 -93 39 -58 43 -71 46 -136 2 -39 -1 -88 -8 -108 -16 -48 -5 -56 26 -20 l25 30 -5 -65 c-3 -36 -8 -74 -12 -84 -15 -39 21 -10 47 38 l26 48 12 -32 c14 -41 14 -78 0 -118 -16 -47 -5 -62 16 -22 17 31 20 65 23 291 l4 256 -108 17 c-59 10 -114 20 -121 23 -9 4 -13 -4 -13 -25z"/>
 <path d="M9153 5198 c-6 -13 -18 -36 -26 -53 -8 -16 -33 -50 -57 -75 -75 -81 -120 -157 -120 -205 0 -40 4 -47 52 -89 44 -39 153 -106 172 -106 3 0 6 124 6 275 0 151 -3 275 -8 275 -4 0 -12 -10 -19 -22z"/>
 <path d="M10110 4206 c0 -8 7 -17 16 -20 21 -8 26 -3 18 18 -8 20 -34 21 -34 2z"/>
 </g>

</svg>